<?xml version="1.0" encoding="utf-8"?>
<!-- Generator: Adobe Illustrator 23.0.0, SVG Export Plug-In . SVG Version: 6.00 Build 0)  -->
<svg version="1.1" id="Capa_1" xmlns="http://www.w3.org/2000/svg" xmlns:xlink="http://www.w3.org/1999/xlink" x="0px" y="0px"
	 viewBox="0 0 70.7 59" style="enable-background:new 0 0 70.7 59;" xml:space="preserve">
<style type="text/css">
	.st0{fill:#212A61;}
</style>
<g id="Grupo_857" transform="translate(0)">
	<path id="Trazado_10224" class="st0" d="M13.9,33.1h10.5c-0.3-0.5-0.7-1-1-1.6c-2.5-4.1-4.6-8.4-5.2-12.1c-0.1-0.5,0.2-0.9,0.7-1
		s0.9,0.2,1,0.7c0,0,0,0,0,0.1c0.6,3.4,2.6,7.5,5,11.5c3.1,4.9,6.6,9.5,10.5,13.8c4.3-4.7,8.1-9.8,11.4-15.3
		C49.2,25,51,20.7,51,17.4c0-8.6-7-15.6-15.6-15.6c-7.9,0-14.6,5.9-15.5,13.8c-0.1,0.5-0.5,0.8-1,0.7c-0.5-0.1-0.8-0.5-0.7-0.9
		C19.2,5.8,27.9-1,37.4,0.1c8.7,1,15.3,8.4,15.3,17.2c0,3.7-1.9,8.2-4.5,12.6c-0.6,1-1.3,2.1-1.9,3.1h10.5v-6.3
		c0-0.5,0.4-0.9,0.9-0.9c3.3,0,6,2.7,6,6V53c0,3.3-2.7,6-6,6c0,0,0,0,0,0H37.3c-0.5,0-0.9-0.4-0.9-0.9c0-0.5,0.4-0.9,0.9-0.9h20.4
		c2.4,0,4.3-1.9,4.3-4.3s-1.9-4.3-4.3-4.3l0,0c-0.5,0-0.9-0.4-0.9-0.9c0,0,0,0,0,0v-13H45.2c-1.5,2.2-3.1,4.3-4.5,6.1
		c1.9,0.2,3.8,0.7,5.6,1.4c2,0.9,3.2,2,3.2,3.4c0,1.6-1.7,2.9-4.5,3.8c-3.1,0.9-6.3,1.3-9.6,1.3c-3.2,0.1-6.5-0.4-9.6-1.3
		c-2.8-0.9-4.5-2.2-4.5-3.8c0-1.3,1.2-2.5,3.2-3.4c1.8-0.7,3.7-1.2,5.6-1.4c-1.5-1.8-3-3.9-4.5-6.1H13.9v13c0,0.5-0.4,0.9-0.9,0.9
		c0,0,0,0,0,0c-2.4,0-4.3,1.9-4.3,4.3s1.9,4.3,4.3,4.3h20.4c0.5,0,0.9,0.4,0.9,0.9c0,0.5-0.4,0.9-0.9,0.9H13c-3.3,0-6-2.7-6-6
		c0,0,0,0,0,0V31.9c0-3.3,2.7-6,6-6c0,0,0,0,0,0c0.5,0,0.9,0.4,0.9,0.9V33.1z M47.4,19.2c0.1-0.5,0.5-0.8,1-0.7s0.8,0.5,0.7,1
		c-1.1,7.6-8.2,12.8-15.8,11.7c-7.6-1.1-12.8-8.2-11.7-15.8c1.1-7.6,8.2-12.8,15.8-11.7c6,0.9,10.8,5.6,11.7,11.7
		c0.1,0.5-0.2,0.9-0.7,1c-0.5,0.1-0.9-0.2-1-0.7c0,0,0,0,0,0c-1-6.7-7.2-11.2-13.9-10.2s-11.2,7.2-10.2,13.9s7.2,11.2,13.9,10.2
		C42.4,28.6,46.6,24.5,47.4,19.2z M39.3,42.5c-1.3,1.6-2.5,2.9-3.3,3.8c-0.3,0.3-0.9,0.4-1.2,0c-1.2-1.2-2.3-2.5-3.4-3.8
		c-2.1,0.2-4.2,0.7-6.2,1.4c-1.3,0.6-2.1,1.2-2.1,1.8c0,0.8,1.2,1.5,3.2,2.2c2.9,0.9,6,1.3,9,1.2c3.1,0.1,6.1-0.4,9-1.2
		c2-0.7,3.2-1.4,3.2-2.2c0-0.6-0.8-1.2-2.1-1.8C43.5,43.2,41.4,42.7,39.3,42.5z M61.9,48.8V31.9c0-2-1.4-3.8-3.4-4.2v19.3
		C59.8,47.3,61,47.9,61.9,48.8z M8.8,48.8c0.9-0.9,2.1-1.5,3.4-1.7V27.7c-2,0.4-3.4,2.2-3.4,4.2V48.8z M36.4,12.2L31.1,18h3.6
		c0.5,0,0.9,0.4,0.9,0.9c0,0.1,0,0.2-0.1,0.3l-1.3,3.3l5.3-5.8H36c-0.5,0-0.9-0.4-0.9-0.9c0,0,0,0,0,0c0-0.1,0-0.2,0.1-0.3
		L36.4,12.2z M28.6,18.3l9.7-10.6c0.3-0.4,0.8-0.4,1.2-0.1c0.3,0.2,0.4,0.6,0.3,1L37.2,15h4.3c0.5,0,0.9,0.4,0.9,0.9
		c0,0.2-0.1,0.4-0.2,0.6L32.5,27c-0.3,0.4-0.8,0.4-1.2,0.1c-0.3-0.2-0.4-0.6-0.3-1l2.5-6.4h-4.3c-0.5,0-0.9-0.4-0.9-0.9
		C28.3,18.7,28.4,18.5,28.6,18.3L28.6,18.3z"/>
</g>
</svg>
