<svg xmlns="http://www.w3.org/2000/svg" width="344" height="394.406" viewBox="0 0 344 394.406">
  <g id="Grupo_1460" data-name="Grupo 1460" transform="translate(24102 18830.131)">
    <g id="home-icon-carro-taxi" transform="translate(-24156.1 -18888.025)">
      <g id="Grupo_1451" data-name="Grupo 1451">
        <g id="Grupo_1450" data-name="Grupo 1450">
          <path id="Trazado_11887" data-name="Trazado 11887" d="M384.3,282.7l-6.2-5.9c-.1-.2-.1-.3-.2-.5l-25.6-59.8a33.316,33.316,0,0,0-30.7-20.3H135.2a33.493,33.493,0,0,0-30.8,20.4L79.1,275.7l-9.4,8.1a44.725,44.725,0,0,0-15.6,33.9V419.6a32.67,32.67,0,0,0,32.5,32.7H106a32.842,32.842,0,0,0,33.1-32.6V408.2h174v11.3a32.863,32.863,0,0,0,33.1,32.7h19.1a32.606,32.606,0,0,0,32.8-32.4V315A44.7,44.7,0,0,0,384.3,282.7ZM122.8,224.4a13.42,13.42,0,0,1,12.4-8.2H321.5a13.42,13.42,0,0,1,12.4,8.2l19.7,45.8h-9.8a52.462,52.462,0,0,0-103,0H103.2Zm200.3,45.8H261.3a32.478,32.478,0,0,1,61.8,0Zm-204,149.3a12.847,12.847,0,0,1-13,12.7H86.9a12.612,12.612,0,0,1-12.8-12.4V405a32.57,32.57,0,0,0,12.8,3.1h32.2v11.4ZM86.9,388.2c-7.1,0-12.8-6.3-12.8-13.4V317.7A24.752,24.752,0,0,1,82.6,299l10.2-8.8H363.2l7.3,7a24.588,24.588,0,0,1,7.6,17.8v59.8c0,7.1-5.6,13.4-12.8,13.4Zm291.2,31.4a12.61,12.61,0,0,1-12.5,12.7.367.367,0,0,0-.3-.1H346.2a12.849,12.849,0,0,1-13.1-12.6V408.2h32.2a32.57,32.57,0,0,0,12.8-3.1Z" fill="#212a61"/>
        </g>
      </g>
      <g id="Grupo_1453" data-name="Grupo 1453">
        <g id="Grupo_1452" data-name="Grupo 1452">
          <path id="Trazado_11888" data-name="Trazado 11888" d="M152.1,314.2h-55a10.029,10.029,0,0,0-10,10v37a10.029,10.029,0,0,0,10,10h55a10.029,10.029,0,0,0,10-10v-37A10.029,10.029,0,0,0,152.1,314.2Zm-10,37h-35v-17h35Z" fill="#212a61"/>
        </g>
      </g>
      <g id="Grupo_1455" data-name="Grupo 1455">
        <g id="Grupo_1454" data-name="Grupo 1454">
          <path id="Trazado_11889" data-name="Trazado 11889" d="M355.1,314.2h-55a10.029,10.029,0,0,0-10,10v37a10.029,10.029,0,0,0,10,10h55a10.029,10.029,0,0,0,10-10v-37A10.029,10.029,0,0,0,355.1,314.2Zm-10,37h-35v-17h35Z" fill="#212a61"/>
        </g>
      </g>
      <g id="Grupo_1457" data-name="Grupo 1457">
        <g id="Grupo_1456" data-name="Grupo 1456">
          <path id="Trazado_11890" data-name="Trazado 11890" d="M261.1,349.2h-70a10,10,0,1,0,0,20h70a10,10,0,0,0,0-20Z" fill="#212a61"/>
        </g>
      </g>
      <g id="Grupo_1459" data-name="Grupo 1459">
        <g id="Grupo_1458" data-name="Grupo 1458">
          <path id="Trazado_11891" data-name="Trazado 11891" d="M261.1,321.2h-70a10,10,0,1,0,0,20h70a10,10,0,0,0,0-20Z" fill="#212a61"/>
        </g>
      </g>
    </g>
    <path id="Trazado_10222" d="M355.322,93.347c3.271-5.452,9.814-6.543,14.176-3.271,5.452,3.271,6.543,9.814,3.271,14.176a1.068,1.068,0,0,1-1.09,1.09l-18.538,25.081,27.262,12c5.452,2.181,7.633,7.633,5.452,14.176,0,1.09-1.09,2.181-2.181,3.271L357.5,192.58c-3.271,5.452-9.814,6.543-14.176,2.181-5.452-3.271-6.543-9.814-2.181-14.176a1.068,1.068,0,0,1,1.09-1.09l18.538-23.99-28.352-10.9c-5.452-2.181-7.633-7.633-5.452-14.176,0-1.09,1.09-1.09,1.09-2.181Z" transform="translate(-24286.133 -18918.367)" fill="#212a61"/>
  </g>
</svg>
