<?xml version="1.0" encoding="utf-8"?>
<!-- Generator: Adobe Illustrator 23.0.0, SVG Export Plug-In . SVG Version: 6.00 Build 0)  -->
<svg version="1.1" id="Capa_1" xmlns="http://www.w3.org/2000/svg" xmlns:xlink="http://www.w3.org/1999/xlink" x="0px" y="0px"
	 viewBox="0 0 70.7 59" style="enable-background:new 0 0 70.7 59;" xml:space="preserve">
<style type="text/css">
	.st0{fill:#212A61;}
</style>
<g id="Grupo_858" transform="translate(0 -42.378)">
	<path id="Trazado_10222" class="st0" d="M44.1,88.9h14.3l-0.5-2.2c-0.1-0.3-0.2-0.6-0.5-0.8c-0.2-0.2-0.4-0.3-0.6-0.3H45.5
		c-0.2,0-0.5,0.1-0.6,0.3c-0.3,0.2-0.4,0.5-0.5,0.8L44.1,88.9z M27.8,51.6c0.4-0.6,0.8-1.3,1.4-1.7c3.5-3.5,9.1-3.5,12.6,0l0,0
		c0.6,0.6,1,1.1,1.4,1.7h12.8c1.6,0,2.8,1.3,2.8,2.8v3.5c0,1.6-1.3,2.8-2.8,2.8h-3.8v7.4h14.8c0.6,0,0.9,0.5,0.9,0.9l0,0v31.5
		c0,0.6-0.5,0.9-0.9,0.9l0,0h-63c-0.6,0-0.9-0.5-0.9-0.9l0,0V68.9c0-0.6,0.5-0.9,0.9-0.9l0,0h14.8v-7.4h-3.1c-1.6,0-2.8-1.3-2.8-2.8
		v-3.5c0-1.6,1.3-2.8,2.8-2.8H27.8z M48.4,57c-0.6,0-0.9-0.5-0.9-0.9c0-0.6,0.5-0.9,0.9-0.9h5.7c0.6,0,0.9,0.5,0.9,0.9
		c0,0.6-0.5,0.9-0.9,0.9l0,0H48.4z M17.5,57c-0.6,0-0.9-0.5-0.9-0.9c0-0.6,0.5-0.9,0.9-0.9l0,0h5.7c0.6,0,0.9,0.5,0.9,0.9
		c0,0.6-0.5,0.9-0.9,0.9l0,0H17.5z M20.6,60.6v7.4h29.6v-7.4h-7.2c-1.2,2-3,3.5-5.3,4c-0.6,0.2-1-0.2-1.2-0.6s0.2-1,0.6-1.2
		c3.8-1,6-4.9,4.9-8.6c-1.1-3.8-4.9-6-8.6-4.9c-3.8,1.1-6,4.9-4.9,8.6c0.6,2.4,2.5,4.2,4.9,4.9c0.6,0.2,0.8,0.6,0.6,1.2
		c-0.2,0.6-0.6,0.8-1.2,0.6l0,0c-1.8-0.6-3.5-1.7-4.7-3.2c-0.2-0.3-0.4-0.6-0.6-0.8L20.6,60.6z M27,53.4H15.7
		c-0.3,0-0.5,0.1-0.6,0.3c-0.2,0.2-0.3,0.4-0.3,0.6v3.5c0,0.5,0.4,0.9,0.9,0.9H27C26.4,57,26.4,55.2,27,53.4L27,53.4z M44,58.7h11.9
		c0.3,0,0.5-0.1,0.6-0.3s0.3-0.4,0.3-0.6v-3.5c0-0.3-0.1-0.5-0.3-0.6s-0.4-0.3-0.6-0.3H44C44.5,55.2,44.5,57,44,58.7z M36.4,76.1
		v23.3h5v-1.4c-0.6-0.1-1-0.4-1.5-0.7c-0.6-0.5-0.9-1.2-0.9-1.9c0-0.2,0-0.3,0-0.5l0.3-2.1c0.2-1.1,0.7-2.1,1.5-2.8
		c0.4-0.4,0.7-0.6,1.2-0.7l0.6-2.8c0.2-0.7,0.6-1.3,1-1.8c0.5-0.5,1.2-0.7,1.8-0.8h11.3c0.7,0,1.4,0.3,1.8,0.8
		c0.6,0.5,0.9,1.1,1,1.8l0.6,2.8c0.5,0.2,0.8,0.5,1.2,0.7c0.6,0.6,1.1,1.4,1.4,2.2c0.2,0.9,0.4,1.8,0.5,2.8c0,0.2,0,0.3,0,0.5
		c0,0.7-0.3,1.5-0.9,1.9c-0.5,0.4-0.9,0.6-1.5,0.7v1.4h5V76.1H53.3c-0.6,0-0.9-0.5-0.9-0.9c0-0.6,0.5-0.9,0.9-0.9l0,0H66v-4.4H4.9
		v4.4h12.7c0.6,0,0.9,0.5,0.9,0.9c0,0.6-0.5,0.9-0.9,0.9H4.9v23.3h5v-1.4c-0.6-0.1-1-0.4-1.5-0.7c-0.6-0.5-0.9-1.2-0.9-1.9
		c0-0.2,0-0.3,0-0.5l0.4-2.2c0.2-1.1,0.7-2.1,1.5-2.8c0.4-0.4,0.7-0.6,1.2-0.7l0.6-2.8c0.2-0.6,0.6-1.3,1-1.8
		c0.5-0.5,1.2-0.7,1.8-0.8h11.3c0.7,0,1.4,0.3,1.8,0.8c0.6,0.5,0.9,1.1,1,1.8l0.6,2.8c0.5,0.2,0.8,0.5,1.2,0.7
		c0.6,0.6,1.1,1.4,1.4,2.2c0.2,0.9,0.4,1.8,0.5,2.8c0,0.2,0,0.3,0,0.5c0,0.7-0.3,1.5-0.9,1.9c-0.5,0.4-0.9,0.6-1.5,0.7v1.4h5V76.1
		H21.8c-0.6,0-0.9-0.5-0.9-0.9c0-0.6,0.5-0.9,0.9-0.9H49c0.6,0,0.9,0.5,0.9,0.9c0,0.6-0.5,0.9-0.9,0.9l0,0H36.4z M15,99.5h9.3v-1.3
		H15V99.5z M46.5,99.5h9.3v-1.3h-9.3V99.5z M35.4,51.5c0.3-0.5,0.9-0.6,1.3-0.3c0.5,0.3,0.6,0.9,0.3,1.3c0,0,0,0.1-0.1,0.1l-1.7,2.3
		l2.5,1.1c0.5,0.2,0.7,0.7,0.5,1.3c0,0.1-0.1,0.2-0.2,0.3l-2.4,3c-0.3,0.5-0.9,0.6-1.3,0.2c-0.5-0.3-0.6-0.9-0.2-1.3
		c0,0,0-0.1,0.1-0.1l1.7-2.2l-2.6-1c-0.5-0.2-0.7-0.7-0.5-1.3c0-0.1,0.1-0.1,0.1-0.2L35.4,51.5z M29.8,94l-1.3,0.3
		c-0.6,0.1-1-0.2-1.1-0.7c-0.1-0.6,0.2-1,0.7-1.1l1.3-0.3c-0.2-0.4-0.4-0.6-0.6-0.9c-0.5-0.4-1-0.6-1.6-0.6H12.2
		c-0.6,0-1.1,0.2-1.6,0.6c-0.3,0.3-0.5,0.6-0.6,0.9l1.3,0.4c0.6,0.1,0.8,0.6,0.7,1.1c-0.1,0.6-0.6,0.8-1.1,0.7l0,0l-1.3-0.3l-0.2,1
		c-0.1,0.3,0,0.6,0.3,0.7c0.4,0.3,0.7,0.4,1.1,0.4h2.8v-1.2c0-1.5,1.2-2.7,2.7-2.7h7c1.5,0,2.7,1.2,2.7,2.7v1.2h2.8
		c0.5,0,0.8-0.1,1.1-0.4c0.2-0.2,0.3-0.5,0.3-0.7L29.8,94z M27.7,99.5v-1.3h-1.4v1.3H27.7z M13.1,99.5v-1.3h-1.4v1.3H13.1z
		 M25.3,85.6H14c-0.2,0-0.5,0.1-0.6,0.3c-0.2,0.2-0.4,0.5-0.5,0.8l-0.5,2.2h14.3l-0.5-2.2c-0.1-0.3-0.3-0.6-0.5-0.8
		C25.8,85.7,25.6,85.6,25.3,85.6L25.3,85.6z M23.9,96.2v-1.2c0-0.2-0.1-0.4-0.3-0.6c-0.2-0.2-0.4-0.2-0.6-0.3h-7
		c-0.2,0-0.4,0.1-0.6,0.3s-0.2,0.4-0.3,0.6v1.2H23.9z M61.3,94l-1.3,0.3c-0.6,0.1-1-0.2-1.1-0.7s0.2-1,0.7-1.1l0,0l1.3-0.3
		c-0.2-0.4-0.4-0.6-0.6-0.9c-0.5-0.4-1-0.6-1.6-0.6H43.7c-0.6,0-1.1,0.2-1.6,0.6c-0.3,0.3-0.5,0.6-0.6,0.9l1.3,0.3
		c0.6,0.1,0.8,0.6,0.7,1.1c-0.1,0.6-0.6,0.8-1.1,0.7l0,0L41.1,94l-0.2,1.1c-0.1,0.3,0,0.6,0.3,0.7c0.4,0.3,0.7,0.4,1.1,0.4h2.8v-1.2
		c0-1.5,1.2-2.7,2.7-2.7h7c1.5,0,2.7,1.2,2.7,2.7v1.2h2.8c0.5,0,0.8-0.1,1.1-0.4c0.2-0.2,0.3-0.5,0.3-0.7L61.3,94z M59.2,99.5v-1.3
		h-1.4v1.3H59.2z M44.7,99.5v-1.3h-1.4v1.3H44.7z M55.5,96.2v-1.2c0-0.2-0.1-0.4-0.3-0.6c-0.2-0.2-0.4-0.2-0.6-0.3h-7
		c-0.5,0-0.8,0.4-0.8,0.8v1.2H55.5z"/>
</g>
</svg>
