<svg xmlns="http://www.w3.org/2000/svg" width="40" height="57" viewBox="0 0 40 57">
  <g id="Grupo_1284" data-name="Grupo 1284" transform="translate(-246 -661)">
    <g id="Grupo_823" data-name="Grupo 823" transform="translate(248 661)">
      <path id="Trazado_10225" data-name="Trazado 10225" d="M55.437,12.045H66.422L66.056,10.3a1.234,1.234,0,0,0-.373-.641.766.766,0,0,0-.494-.238H56.67a.767.767,0,0,0-.494.238,1.233,1.233,0,0,0-.373.641ZM46.566,8.688h-5a.638.638,0,0,1,0-1.277h5V5.328A.639.639,0,0,1,47.2,4.69H65.751V1.274H39.571v12a.637.637,0,0,1-1.274,0V.638A.639.639,0,0,1,38.935,0H66.386a.639.639,0,0,1,.638.638V4.69h7.631a.639.639,0,0,1,.638.638v7.951a.637.637,0,0,1-1.274,0V5.964H47.84V42.23h20V36.688a.637.637,0,0,1,.636-.638h5.545V16.164a.637.637,0,0,1,1.274,0V36.688a.633.633,0,0,1-.19.453l-6.178,6.178a.637.637,0,0,1-.45.185H47.2a.637.637,0,0,1-.638-.636V38.815h-7.63a.637.637,0,0,1-.638-.636V16.164a.637.637,0,0,1,1.274,0V37.541h6.995v-4.7h-5a.637.637,0,0,1,0-1.274h5V30.161h-5a.638.638,0,0,1,0-1.277h5V27.475h-5a.637.637,0,0,1,0-1.274h5V24.792h-5a.637.637,0,0,1,0-1.274h5V22.107h-5a.637.637,0,0,1,0-1.274h5V19.423h-5a.637.637,0,0,1,0-1.274h5V16.74h-5a.637.637,0,0,1,0-1.274h5V14.054h-5a.637.637,0,0,1,0-1.274h5V11.371h-5a.637.637,0,0,1,0-1.274h5ZM73.118,37.324H69.113V41.33Zm-20.666-13.2a.638.638,0,0,1,0-1.277H69.407a.638.638,0,0,1,0,1.277Zm0,5.366a.637.637,0,0,1,0-1.274H66.386a.637.637,0,1,1,0,1.274Zm0-2.683a.637.637,0,0,1,0-1.274H69.407a.637.637,0,1,1,0,1.274Zm8.3,6.884a.634.634,0,1,1,.995.785l-.614.778.867.383a.634.634,0,0,1,.325.838.6.6,0,0,1-.116.178l-1.093,1.38a.634.634,0,0,1-.995-.788l.614-.776-.867-.383a.636.636,0,0,1-.241-.975Zm.183-2.676a4.844,4.844,0,1,1-3.43,1.419A4.84,4.84,0,0,1,60.931,31.013Zm2.527,2.32A3.576,3.576,0,1,0,64.5,35.86,3.571,3.571,0,0,0,63.457,33.333Zm5.186-17.54-1.043.246a.637.637,0,0,1-.289-1.24l1.07-.25a2.27,2.27,0,0,0-.54-.778,1.775,1.775,0,0,0-1.233-.45H55.251a1.775,1.775,0,0,0-1.233.45,2.273,2.273,0,0,0-.54.778l1.069.25a.637.637,0,0,1-.289,1.24l-1.043-.246-.132.9a.658.658,0,0,0,.2.617,1.4,1.4,0,0,0,.918.306h2.161V16.67a1.953,1.953,0,0,1,1.946-1.946h5.234a1.949,1.949,0,0,1,1.946,1.946v.949h2.161a1.387,1.387,0,0,0,.918-.306.659.659,0,0,0,.2-.617Zm-.352,3.03v1.313A1.165,1.165,0,0,1,67.131,21.3h-1.45a1.163,1.163,0,0,1-1.161-1.161V18.893H57.34v1.243A1.165,1.165,0,0,1,56.179,21.3h-1.45a1.163,1.163,0,0,1-1.161-1.161V18.823a2.507,2.507,0,0,1-1.134-.568,1.9,1.9,0,0,1-.609-1.741l.234-1.59a3.684,3.684,0,0,1,1.106-2.093,2.978,2.978,0,0,1,.93-.578l.465-2.211a2.574,2.574,0,0,1,.751-1.313,2.037,2.037,0,0,1,1.361-.583h8.519a2.036,2.036,0,0,1,1.361.583,2.575,2.575,0,0,1,.752,1.313l.465,2.211a2.975,2.975,0,0,1,.93.578,3.7,3.7,0,0,1,1.081,1.949c.111.566.173,1.163.258,1.734a1.9,1.9,0,0,1-.609,1.741,2.508,2.508,0,0,1-1.135.569Zm-1.274,1.2V18.893H65.794v1.127Zm-10.952,0V18.893H54.842v1.127Zm8.151-2.4V16.67a.674.674,0,0,0-.67-.67H58.313a.674.674,0,0,0-.67.67v.949Z" transform="translate(-38.297)" fill="#212a61"/>
    </g>
    <g id="Grupo_1210" data-name="Grupo 1210" transform="translate(-43 -29)">
      <text id="Manual" transform="translate(309 744)" fill="#212a61" font-size="12" font-family="ProductSans-Bold, Product Sans" font-weight="700"><tspan x="-19.788" y="0">Manual</tspan></text>
    </g>
  </g>
</svg>
