<svg xmlns="http://www.w3.org/2000/svg" width="45.967" height="59.1" viewBox="0 0 45.967 59.1">
  <g id="Grupo_1253" data-name="Grupo 1253" transform="translate(-157.155 -492.357)">
    <path id="Trazado_10392" data-name="Trazado 10392" d="M570.907,95.542a23.009,23.009,0,0,0-22.983,22.983c0,11.794,18.439,32.682,20.541,35.027a3.283,3.283,0,0,0,4.885,0c2.1-2.344,20.541-23.233,20.541-35.027A23.009,23.009,0,0,0,570.907,95.542Z" transform="translate(-390.769 396.815)" fill="#d9534f"/>
    <path id="Trazado_10393" data-name="Trazado 10393" d="M601.243,129.494a1.642,1.642,0,0,0-1.4-.772h-8.208V117.231a1.642,1.642,0,0,0-1.264-1.592,1.615,1.615,0,0,0-1.839.854l-9.85,19.7a1.642,1.642,0,0,0,1.461,2.381h8.209v11.491a1.641,1.641,0,0,0,1.264,1.592,1.493,1.493,0,0,0,.378.05,1.642,1.642,0,0,0,1.461-.9l9.85-19.7A1.654,1.654,0,0,0,601.243,129.494Z" transform="translate(-409.77 384.36)" fill="#ffc414"/>
  </g>
</svg>
