<?xml version="1.0" encoding="utf-8"?>
<!-- Generator: Adobe Illustrator 23.0.0, SVG Export Plug-In . SVG Version: 6.00 Build 0)  -->
<svg version="1.1" id="Capa_1" xmlns="http://www.w3.org/2000/svg" xmlns:xlink="http://www.w3.org/1999/xlink" x="0px" y="0px"
	 viewBox="0 0 233 148.4" style="enable-background:new 0 0 233 148.4;" xml:space="preserve">
<style type="text/css">
	.st0{fill:#ACC6E5;}
	.st1{fill:#E8EAED;}
	.st2{fill:#ADDBB7;}
	.st3{fill:#212A61;}
	.st4{fill:#FFC414;}
	.st5{enable-background:new    ;}
</style>
<g id="Grupo_864" transform="translate(-358.642 -95)">
	<g id="Grupo_863" transform="translate(430.339 95)">
		<g id="Grupo_858" transform="translate(11.543 76.833)">
			<g id="Grupo_857">
				<path id="Trazado_10375" class="st0" d="M77.7,22.3L36.4,0.4C35.3-0.2,34-0.1,33,0.6L1.4,22.5c-1.5,1-1.9,3.1-0.8,4.6
					c0.6,0.9,1.6,1.4,2.7,1.4h72.9c1.8,0,3.3-1.5,3.3-3.3C79.5,23.9,78.8,22.8,77.7,22.3L77.7,22.3z"/>
			</g>
		</g>
		<g id="Grupo_860" transform="translate(55.305 46.53)">
			<g id="Grupo_859">
				<path id="Trazado_10376" class="st1" d="M47.8,46.3L38.1,2.6c-0.4-1.8-2.2-2.9-3.9-2.5c-0.4,0.1-0.8,0.3-1.1,0.5L1.4,22.5
					c-1.5,1-1.9,3.1-0.8,4.6c0.3,0.4,0.7,0.8,1.2,1l41.3,21.9c0.5,0.3,1,0.4,1.5,0.4c0.7,0,1.4-0.2,2-0.7
					C47.6,48.9,48.1,47.6,47.8,46.3z"/>
			</g>
		</g>
		<g id="Grupo_862" transform="translate(2.097 39.605)">
			<g id="Grupo_861">
				<path id="Trazado_10377" class="st2" d="M78.2,2.3C77.7,0.9,76.5,0,75,0H45c-5.5,9.9-13.5,19.3-16.8,23c-3.6,4-9.9,4.4-13.9,0.8
					c-0.3-0.2-0.5-0.5-0.8-0.8c-1.3-1.4-3.3-3.7-5.5-6.5L0.1,52.2c-0.3,1.3,0.3,2.7,1.4,3.4c1.1,0.8,2.6,0.7,3.7,0L76.9,6
					C78.1,5.2,78.6,3.7,78.2,2.3z"/>
			</g>
		</g>
		<path id="Trazado_10378" class="st3" d="M78.6,9.1h-0.8V3c0-1.7-1.4-3-3.1-3c-1.6,0-3,1.3-3,3v6.1h-3V3c0-1.7-1.4-3-3-3
			c-1.7,0-3,1.4-3,3v6.1h-0.8c-1.3,0-2.3,1-2.3,2.3v6.1c0,4.3,3.3,7.9,7.6,8.3v1.6c0,1.4,0.9,2.6,2.3,2.9h0H71
			c1.3-0.3,2.3-1.6,2.3-2.9v-1.6c4.3-0.4,7.6-4,7.6-8.3v-6.1C80.9,10.1,79.9,9.1,78.6,9.1z"/>
		<path id="Trazado_10379" d="M73.3,3c0-0.8,0.7-1.5,1.5-1.5s1.5,0.7,1.5,1.5l0,0v8.4h-3V3z"/>
		<path id="Trazado_10380" d="M64.2,3c0-0.8,0.7-1.5,1.5-1.5c0.8,0,1.5,0.7,1.5,1.5c0,0,0,0,0,0v8.4h-3V3z"/>
		<path id="Trazado_10381" class="st3" d="M71.8,27.4c0,0.8-0.7,1.5-1.5,1.5s-1.5-0.7-1.5-1.5v-3c0-0.8,0.7-1.5,1.5-1.5
			s1.5,0.7,1.5,1.5l0,0V27.4z"/>
		<path id="Trazado_10382" class="st3" d="M73.3,24.3c0-1.7-1.4-3-3-3c-1.7,0-3,1.4-3,3l0,0c-3.5-0.4-6.1-3.3-6.1-6.8v-6.1
			c0-0.4,0.3-0.8,0.8-0.8l0,0h0.8v1.5c0,0.4,0.3,0.8,0.8,0.8l0,0H68c0.4,0,0.8-0.3,0.8-0.8c0,0,0,0,0,0v-1.5h3v1.5
			c0,0.4,0.3,0.8,0.8,0.8l0,0h4.6c0.4,0,0.8-0.3,0.8-0.8c0,0,0,0,0,0v-1.5h0.8c0.4,0,0.8,0.3,0.8,0.8c0,0,0,0,0,0v6.1
			C79.4,21,76.8,23.9,73.3,24.3z"/>
		<path id="Trazado_10383" class="st3" d="M69.3,28.2L69.3,28.2l0,5.8c0,0.3-0.1,0.5-0.3,0.7c-0.2,0.2-0.4,0.3-0.7,0.3l-12.1,0
			l-6.4,0c-0.3,0-0.5-0.1-0.7-0.3c-0.2-0.2-0.3-0.4-0.3-0.7v-9.2c0-1.6-1.3-2.9-2.9-2.9H45v1.9H46c0.5,0,1,0.4,1,1c0,0,0,0,0,0V34
			c0,1.6,1.3,2.9,2.9,2.9l6.4,0l12.1,0c1.6,0,2.9-1.3,2.9-2.9v-5.8L69.3,28.2z"/>
		<path id="Trazado_10384" d="M76.3,3c0-0.8-0.7-1.5-1.5-1.5S73.3,2.2,73.3,3l0,0v8.4h3V3z"/>
		<path id="Trazado_10385" d="M67.2,3c0-0.8-0.7-1.5-1.5-1.5c-0.8,0-1.5,0.7-1.5,1.5c0,0,0,0,0,0v8.4h3V3z"/>
		<path id="Trazado_10386" class="st3" d="M70.3,22.8c-0.8,0-1.5,0.7-1.5,1.5c0,0,0,0,0,0v3c0,0.8,0.7,1.5,1.5,1.5s1.5-0.7,1.5-1.5
			v-3C71.8,23.5,71.1,22.8,70.3,22.8C70.3,22.8,70.3,22.8,70.3,22.8z"/>
		<path id="Trazado_10387" class="st3" d="M79.4,11.4c0-0.4-0.3-0.8-0.8-0.8l0,0h-0.8v1.5c0,0.4-0.3,0.8-0.8,0.8l0,0h-4.6
			c-0.4,0-0.8-0.3-0.8-0.8c0,0,0,0,0,0v-1.5h-3v1.5c0,0.4-0.3,0.8-0.8,0.8l0,0h-4.6c-0.4,0-0.8-0.3-0.8-0.8c0,0,0,0,0,0v-1.5h-0.8
			c-0.4,0-0.8,0.3-0.8,0.8c0,0,0,0,0,0v6.1c0,3.5,2.6,6.4,6.1,6.8l0,0c0-1.7,1.4-3,3-3c1.7,0,3,1.4,3,3c3.5-0.4,6.1-3.3,6.1-6.8
			L79.4,11.4z"/>
		<path id="Trazado_10388" class="st3" d="M79.4,17.5c0,3.5-2.6,6.4-6.1,6.8c0-1.7-1.4-3-3-3c-1.7,0-3,1.4-3,3l0,0
			c-3.5-0.4-6.1-3.3-6.1-6.8v-6.1c0-0.4,0.3-0.8,0.8-0.8l0,0h0.8v1.5c0,0.4,0.3,0.8,0.8,0.8l0,0H68c0.4,0,0.8-0.3,0.8-0.8
			c0,0,0,0,0,0v-1.5h3v1.5c0,0.4,0.3,0.8,0.8,0.8l0,0h4.6c0.4,0,0.8-0.3,0.8-0.8c0,0,0,0,0,0v-1.5h0.8c0.4,0,0.8,0.3,0.8,0.8
			c0,0,0,0,0,0L79.4,17.5z"/>
		<path id="Trazado_10389" class="st3" d="M71.8,27.4c0,0.8-0.7,1.5-1.5,1.5s-1.5-0.7-1.5-1.5v-3c0-0.8,0.7-1.5,1.5-1.5
			s1.5,0.7,1.5,1.5l0,0V27.4z"/>
		<path id="Trazado_10390" class="st4" d="M73.3,3c0-0.8,0.7-1.5,1.5-1.5s1.5,0.7,1.5,1.5v8.4h-3V3z"/>
		<path id="Trazado_10391" class="st4" d="M64.2,3c0-0.8,0.7-1.5,1.5-1.5c0.8,0,1.5,0.7,1.5,1.5v8.4h-3V3z"/>
		<path id="Trazado_10392" class="st3" d="M23,0.2c-12.7,0-23,10.3-23,23c0,11.8,18.4,32.7,20.5,35c1.2,1.3,3.3,1.5,4.6,0.2
			c0.1-0.1,0.2-0.2,0.2-0.2C27.5,55.9,46,35,46,23.2C46,10.5,35.7,0.2,23,0.2z"/>
		<path id="Trazado_10393" class="st4" d="M34.3,21.7c-0.3-0.5-0.8-0.8-1.4-0.8h-8.2V9.4c0-0.8-0.5-1.4-1.3-1.6
			c-0.7-0.2-1.5,0.2-1.8,0.9l-9.8,19.7c-0.4,0.8-0.1,1.8,0.7,2.2c0.2,0.1,0.5,0.2,0.7,0.2h8.2v11.5c0,0.8,0.5,1.4,1.3,1.6
			c0.1,0,0.3,0,0.4,0.1c0.6,0,1.2-0.3,1.5-0.9l9.8-19.7C34.6,22.8,34.6,22.2,34.3,21.7z"/>
	</g>
	<g class="st5">
		<path class="st3" d="M375.9,237.4h-15.5v-19.6h15.5v3.9h-10.5v3.8h8.3v3.9h-8.3v4.1h10.5V237.4z"/>
		<path class="st3" d="M377.3,217.8h4.9v15c0,0.3,0.1,0.5,0.3,0.7c0.2,0.2,0.4,0.3,0.7,0.3h1.7v3.6c-0.4,0.1-0.8,0.1-1.1,0.1
			c-0.3,0-0.7,0.1-1.1,0.1c-0.4,0-0.8,0-1.1,0c-1.3,0-2.3-0.4-3.1-1.1c-0.8-0.8-1.1-1.8-1.1-3.1V217.8z"/>
		<path class="st3" d="M385.9,226.8c0-1.4,0.4-2.5,1.2-3.3c0.8-0.8,1.9-1.2,3.3-1.2h5.6c1.4,0,2.5,0.4,3.3,1.2
			c0.8,0.8,1.2,1.9,1.2,3.3v5.2h-9.7v1.1c0,0.3,0.1,0.5,0.3,0.7s0.4,0.3,0.7,0.3c0.8,0,1.7,0,2.6,0c0.9,0,1.8,0,2.6,0
			c1-0.1,1.9-0.2,2.9-0.3v3.5c-1.1,0.2-2.2,0.2-3.3,0.2c-1,0.2-2,0.3-3.2,0.3c-1.1,0-2.2,0-3.3,0c-1.3,0-2.3-0.4-3.1-1.1
			c-0.8-0.8-1.1-1.8-1.1-3V226.8z M392,225.8c-0.7,0-1.1,0.4-1.1,1.1v1.5h4.8v-1.5c0-0.7-0.4-1.1-1.1-1.1H392z"/>
		<path class="st3" d="M402.2,227.1c0-1.4,0.4-2.5,1.2-3.3c0.8-0.8,1.9-1.2,3.3-1.2h9v3.8h-7.4c-0.7,0-1.1,0.4-1.1,1.1v5.4
			c0,0.3,0.1,0.5,0.3,0.7s0.4,0.3,0.7,0.3c0.7,0,1.5,0,2.4,0c0.9,0,1.7,0,2.5-0.1c0.9-0.1,1.8-0.2,2.7-0.3v3.6
			c-1,0.1-2.1,0.2-3.2,0.2c-0.9,0.2-1.9,0.3-3,0.3c-1.1,0-2.1,0-3.1,0c-1.3,0-2.3-0.4-3.1-1.1c-0.8-0.8-1.1-1.8-1.1-3V227.1z"/>
		<path class="st3" d="M423,222.6h3.5v3.8H423v6.4c0,0.3,0.1,0.5,0.3,0.7c0.2,0.2,0.4,0.3,0.7,0.3h3.6v3.7c-0.5,0.1-1.1,0.1-1.7,0.1
			c-0.5,0.1-1.1,0.1-1.7,0.1c-0.6,0-1.3,0-1.9,0c-1.3,0-2.3-0.4-3.1-1.1c-0.8-0.8-1.1-1.8-1.1-3v-7.1h-1.7v-3.8h1.7l0.6-3.3h4.3
			V222.6z"/>
		<path class="st3" d="M433.4,222.6l0.3,1.8c0.4-0.4,0.9-0.7,1.4-1c0.4-0.3,1-0.5,1.6-0.7c0.6-0.2,1.3-0.3,2-0.3h1.3v4.3h-2.4
			c-0.5,0-0.9,0-1.4,0.1c-0.4,0.1-0.8,0.2-1.2,0.3c-0.4,0.1-0.8,0.3-1.1,0.4v9.9h-4.9v-14.8H433.4z"/>
		<path class="st3" d="M455.9,233.2c0,1.4-0.4,2.5-1.2,3.3c-0.8,0.8-1.9,1.2-3.3,1.2H445c-1.4,0-2.5-0.4-3.3-1.2
			c-0.8-0.8-1.2-1.9-1.2-3.3v-6.4c0-1.4,0.4-2.5,1.2-3.3c0.8-0.8,1.9-1.2,3.3-1.2h6.4c1.4,0,2.5,0.4,3.3,1.2
			c0.8,0.8,1.2,1.9,1.2,3.3V233.2z M451,227.2c0-0.7-0.4-1.1-1.1-1.1h-3.4c-0.7,0-1.1,0.4-1.1,1.1v5.6c0,0.7,0.4,1.1,1.1,1.1h3.4
			c0.7,0,1.1-0.4,1.1-1.1V227.2z"/>
		<path class="st3" d="M475.3,226.4c-0.3,0-0.7,0-1,0.1c-0.4,0.1-0.7,0.1-1,0.2c-0.4,0.1-0.8,0.2-1.1,0.3v10.5h-4.9v-10.1
			c0-0.3-0.1-0.5-0.3-0.7c-0.2-0.2-0.4-0.3-0.7-0.3H466c-0.3,0-0.7,0-1,0.1c-0.4,0.1-0.7,0.1-1,0.2c-0.4,0.1-0.8,0.2-1.1,0.3v10.5
			h-4.9v-14.8h4.3l0.3,1.4c0.5-0.3,1-0.6,1.6-0.8c0.5-0.2,1-0.4,1.6-0.6c0.6-0.2,1.2-0.3,1.8-0.3h0.3c0.8,0,1.5,0.2,2.1,0.5
			c0.6,0.3,1,0.7,1.4,1.2c0.5-0.3,1-0.6,1.6-0.8c0.5-0.2,1.1-0.4,1.7-0.6c0.7-0.2,1.4-0.3,2.2-0.3h0.3c1.3,0,2.3,0.4,3.1,1.1
			s1.1,1.8,1.1,3.1v10.9h-4.9v-10.1c0-0.3-0.1-0.5-0.3-0.7c-0.2-0.2-0.4-0.3-0.7-0.3H475.3z"/>
		<path class="st3" d="M498.4,233.2c0,1.4-0.4,2.5-1.2,3.3c-0.8,0.8-1.9,1.2-3.3,1.2h-6.4c-1.4,0-2.5-0.4-3.3-1.2
			c-0.8-0.8-1.2-1.9-1.2-3.3v-6.4c0-1.4,0.4-2.5,1.2-3.3c0.8-0.8,1.9-1.2,3.3-1.2h6.4c1.4,0,2.5,0.4,3.3,1.2
			c0.8,0.8,1.2,1.9,1.2,3.3V233.2z M493.5,227.2c0-0.7-0.4-1.1-1.1-1.1H489c-0.7,0-1.1,0.4-1.1,1.1v5.6c0,0.7,0.4,1.1,1.1,1.1h3.4
			c0.7,0,1.1-0.4,1.1-1.1V227.2z"/>
		<path class="st3" d="M510,222.6h5.2l-5.6,14.8H504l-5.6-14.8h5.2l3.2,10.1L510,222.6z"/>
		<path class="st3" d="M521.9,223.2v14.3H517v-10.5h-2.1v-3.8H521.9z M517,217.6h4.9v3.9H517V217.6z"/>
		<path class="st3" d="M524.1,217.8h4.9v15c0,0.3,0.1,0.5,0.3,0.7c0.2,0.2,0.4,0.3,0.7,0.3h1.7v3.6c-0.4,0.1-0.8,0.1-1.1,0.1
			c-0.3,0-0.7,0.1-1.1,0.1c-0.4,0-0.8,0-1.1,0c-1.3,0-2.3-0.4-3.1-1.1c-0.8-0.8-1.1-1.8-1.1-3.1V217.8z"/>
		<path class="st3" d="M539.2,223.2v14.3h-4.9v-10.5h-2.1v-3.8H539.2z M534.3,217.6h4.9v3.9h-4.9V217.6z"/>
		<path class="st3" d="M552,237.4l-0.3-1.4c-0.5,0.3-1,0.6-1.6,0.8c-0.5,0.2-1,0.4-1.6,0.6c-0.6,0.2-1.2,0.3-1.8,0.3h-1.3
			c-1.3,0-2.3-0.4-3.1-1.1c-0.8-0.8-1.1-1.8-1.1-3.1v-6.4c0-1.4,0.4-2.5,1.2-3.3c0.8-0.8,1.9-1.2,3.3-1.2h5.7v-4.8h4.9v19.6H552z
			 M551.4,226.4h-4.2c-0.7,0-1.1,0.4-1.1,1.1v5.2c0,0.3,0.1,0.5,0.3,0.7c0.2,0.2,0.4,0.3,0.7,0.3h1c0.4,0,0.7,0,1.1-0.1
			c0.4-0.1,0.8-0.1,1.1-0.2c0.4-0.1,0.8-0.2,1.1-0.3V226.4z"/>
		<path class="st3" d="M562.1,237.7c-1.3,0-2.3-0.4-3.1-1.1c-0.8-0.8-1.1-1.8-1.1-3.1v-1.3c0-1.3,0.4-2.3,1.1-3.1
			c0.8-0.8,1.8-1.1,3.1-1.1h5.7V227c0-0.3-0.1-0.5-0.3-0.7s-0.4-0.3-0.7-0.3c-0.7,0-1.6,0-2.4,0s-1.7,0-2.5,0.1
			c-0.9,0.1-1.8,0.2-2.7,0.2v-3.5c1-0.2,2.1-0.2,3.1-0.2c0.9-0.2,1.9-0.3,3-0.3s2.1,0,3.1,0c1.3,0,2.3,0.4,3.1,1.1
			c0.8,0.8,1.1,1.8,1.1,3v10.9h-4.3l-0.3-1.4c-0.5,0.3-1,0.6-1.6,0.8c-0.5,0.2-1,0.4-1.6,0.6c-0.6,0.2-1.2,0.3-1.8,0.3H562.1z
			 M564.4,233.8c0.4,0,0.7,0,1.1-0.1c0.4-0.1,0.8-0.1,1.1-0.2c0.4-0.1,0.8-0.2,1.1-0.3v-1.7h-4.1c-0.3,0-0.5,0.1-0.7,0.3
			c-0.2,0.2-0.3,0.4-0.3,0.7v0.3c0,0.3,0.1,0.5,0.3,0.7c0.2,0.2,0.4,0.3,0.7,0.3H564.4z"/>
		<path class="st3" d="M585.2,237.4l-0.3-1.4c-0.5,0.3-1,0.6-1.6,0.8c-0.5,0.2-1,0.4-1.6,0.6c-0.6,0.2-1.2,0.3-1.8,0.3h-1.3
			c-1.3,0-2.3-0.4-3.1-1.1c-0.8-0.8-1.1-1.8-1.1-3.1v-6.4c0-1.4,0.4-2.5,1.2-3.3c0.8-0.8,1.9-1.2,3.3-1.2h5.7v-4.8h4.9v19.6H585.2z
			 M584.6,226.4h-4.2c-0.7,0-1.1,0.4-1.1,1.1v5.2c0,0.3,0.1,0.5,0.3,0.7c0.2,0.2,0.4,0.3,0.7,0.3h1c0.4,0,0.7,0,1.1-0.1
			c0.4-0.1,0.8-0.1,1.1-0.2c0.4-0.1,0.8-0.2,1.1-0.3V226.4z"/>
	</g>
</g>
</svg>
