<svg xmlns="http://www.w3.org/2000/svg" xmlns:xlink="http://www.w3.org/1999/xlink" width="567" height="756" viewBox="0 0 567 756">
  <defs>
    <clipPath id="clip-path">
      <rect id="Rectángulo_1506" data-name="Rectángulo 1506" width="567" height="756" transform="translate(0.107 -0.491)" fill="#fff" stroke="#707070" stroke-width="1"/>
    </clipPath>
    <clipPath id="clip-path-2">
      <path id="Trazado_11312" data-name="Trazado 11312" d="M60.25,0H867.56l.774,760.5H-92.079Z" transform="translate(92.079)" fill="#fff"/>
    </clipPath>
  </defs>
  <g id="Enmascarar_grupo_21" data-name="Enmascarar grupo 21" transform="translate(-0.107 0.491)" clip-path="url(#clip-path)">
    <g id="Grupo_1201" data-name="Grupo 1201" transform="translate(-160.71 1.174)">
      <g id="Enmascarar_grupo_20" data-name="Enmascarar grupo 20" clip-path="url(#clip-path-2)">
        <g id="Grupo_1200" data-name="Grupo 1200" transform="translate(-658.231 -40.597)">
          <path id="Trazado_11170" data-name="Trazado 11170" d="M1855.751-28.716,1737.511-156.678l204.87-102.483-26.807-25.305-335.1,167.1-134.3-177-11.125-10.523-39.066-29.427" transform="translate(-829.143 430.853)" fill="none" stroke="#fefefd" stroke-linecap="round" stroke-linejoin="round" stroke-width="3"/>
          <path id="Trazado_11171" data-name="Trazado 11171" d="M1416.207-338.086s113.194,70.359,124.477,72.5,99.858-86.482,99.858-86.482l47.808-39.006" transform="translate(-808.031 402.318)" fill="none" stroke="#fefefd" stroke-linecap="round" stroke-linejoin="round" stroke-width="3"/>
          <path id="Trazado_11172" data-name="Trazado 11172" d="M1830.076-267.542s-258.563,129.719-268.523,133.459-31.672,10.484-35.359,14.21,65.006,85.022,75.547,82.582S1862.5-168.7,1869.74-177.1c-4.486-6.469-40.508-42.41-50.461-51.355-10.91,4.608-23.4,12.887-23.4,12.887l75.514,76.623" transform="translate(-693.383 464.421)" fill="none" stroke="#fefefd" stroke-linecap="round" stroke-linejoin="round" stroke-width="3"/>
          <path id="Trazado_11173" data-name="Trazado 11173" d="M1830.076-267.542s-258.563,129.719-268.523,133.459-31.672,10.484-35.359,14.21,65.006,85.022,75.547,82.582S1862.5-168.7,1869.74-177.1c-4.486-6.469-40.508-42.41-50.461-51.355-10.91,4.608-23.4,12.887-23.4,12.887l75.514,76.623" transform="translate(-693.383 713.622)" fill="none" stroke="#fefefd" stroke-linecap="round" stroke-linejoin="round" stroke-width="3"/>
          <path id="Trazado_11174" data-name="Trazado 11174" d="M2608.592-214.336,2142.744,74.754,1786.218,296.465h-68.976l225.707-141.94L1804.171-20.124,1725.995-122.4,1473.912-6.357l13.522,15.639-181.74,92.342,38.915,52.9-14.865,6.43s13.475,26.708,33.015,28.268" transform="translate(-923.374 491.169)" fill="none" stroke="#fefefd" stroke-linecap="round" stroke-linejoin="round" stroke-width="3"/>
          <path id="Trazado_11175" data-name="Trazado 11175" d="M1972.842,248.046s-78.3-38.742-127.253-99.957S1750.787,27.45,1739.2,9.044s-39.379-65.687-95.816-78S1324.7-77.92,1298-76.915s-122.459,11.849-179.374-22.8" transform="translate(-1118.623 548.792)" fill="none" stroke="#fefefd" stroke-linecap="round" stroke-linejoin="round" stroke-width="6"/>
          <path id="Trazado_11176" data-name="Trazado 11176" d="M1833.152-121.173S2004.86,36.435,2019.034,45.846" transform="translate(-409.644 560.546)" fill="none" stroke="#fefefd" stroke-linecap="round" stroke-width="3"/>
          <path id="Trazado_11177" data-name="Trazado 11177" d="M1777.794-246.425,1949.606-92.49" transform="translate(-430.634 475.037)" fill="none" stroke="#fefefd" stroke-linecap="round" stroke-width="3"/>
          <path id="Trazado_11178" data-name="Trazado 11178" d="M1815.153-272.3l159.463,148.851" transform="translate(-391.644 462.029)" fill="none" stroke="#fefefd" stroke-linecap="round" stroke-width="3"/>
          <path id="Trazado_11179" data-name="Trazado 11179" d="M1816.83-266.794l104.241,100.67" transform="translate(-685.016 374.422)" fill="none" stroke="#fefefd" stroke-linecap="round" stroke-width="3"/>
          <path id="Trazado_11180" data-name="Trazado 11180" d="M1816.83-266.794l104.241,100.67" transform="translate(-560.656 333.224)" fill="none" stroke="#fefefd" stroke-linecap="round" stroke-width="3"/>
          <path id="Trazado_11181" data-name="Trazado 11181" d="M1816.83-266.794l104.241,100.67" transform="translate(-514.192 300.064)" fill="none" stroke="#fefefd" stroke-linecap="round" stroke-width="3"/>
          <path id="Trazado_11182" data-name="Trazado 11182" d="M1842.849-296.383s150.471,141.265,162.813,150.118" transform="translate(-362.736 449.921)" fill="none" stroke="#fefefd" stroke-linecap="round" stroke-width="3"/>
          <path id="Trazado_11183" data-name="Trazado 11183" d="M1738.471-135.881l53.291-30.7,27.566,22.281,223.465-138.242" transform="translate(-471.677 456.878)" fill="none" stroke="#fefefd" stroke-linecap="round" stroke-linejoin="round" stroke-width="3"/>
          <path id="Trazado_11184" data-name="Trazado 11184" d="M1769.929-159.367l46.454,47.155L2017.342-235.83" transform="translate(-438.844 480.364)" fill="none" stroke="#fefefd" stroke-linecap="round" stroke-linejoin="round" stroke-width="3"/>
          <path id="Trazado_11185" data-name="Trazado 11185" d="M1826.259-119.835,1988.154-218.6" transform="translate(-380.052 489.025)" fill="none" stroke="#fefefd" stroke-linecap="round" stroke-width="3"/>
          <path id="Trazado_11186" data-name="Trazado 11186" d="M1818.988-172.262,1940.745-251" transform="translate(-389.134 472.738)" fill="none" stroke="#fefefd" stroke-linecap="round" stroke-width="3"/>
          <path id="Trazado_11187" data-name="Trazado 11187" d="M1882.682-237.429l39.147-26.89" transform="translate(-321.162 466.041)" fill="none" stroke="#fefefd" stroke-linecap="round" stroke-width="3"/>
          <path id="Trazado_11188" data-name="Trazado 11188" d="M1794.142-202.708l66.659-44.764,56.633-31.107" transform="translate(-413.572 458.872)" fill="none" stroke="#fefefd" stroke-linecap="round" stroke-linejoin="round" stroke-width="3"/>
          <path id="Trazado_11189" data-name="Trazado 11189" d="M1826.259-282.546l26.671,21.536" transform="translate(-380.052 456.878)" fill="none" stroke="#fefefd" stroke-linecap="round" stroke-width="3"/>
          <path id="Trazado_11190" data-name="Trazado 11190" d="M1751.6-158.665l54.968-32.341" transform="translate(-457.976 502.898)" fill="none" stroke="#fefefd" stroke-linecap="round" stroke-width="3"/>
          <path id="Trazado_11191" data-name="Trazado 11191" d="M1846.251-180.245l-140.331,72.578-57.7,31.462" transform="translate(-567.981 508.308)" fill="none" stroke="#fefefd" stroke-linecap="round" stroke-linejoin="round" stroke-width="3"/>
          <path id="Trazado_11192" data-name="Trazado 11192" d="M1663.336-153.568l78.407,75.217,92.091,82.445" transform="translate(-550.097 521.719)" fill="none" stroke="#fefefd" stroke-linecap="round" stroke-linejoin="round" stroke-width="3"/>
          <path id="Trazado_11193" data-name="Trazado 11193" d="M1665.522-151.452l81.4,78.232,99.117,88.079" transform="translate(-673.655 579.006)" fill="none" stroke="#fefefd" stroke-linecap="round" stroke-linejoin="round" stroke-width="3"/>
          <path id="Trazado_11194" data-name="Trazado 11194" d="M1663.335-153.568l27.4,28.669" transform="translate(-703.026 596.029)" fill="none" stroke="#fefefd" stroke-linecap="round" stroke-linejoin="round" stroke-width="3"/>
          <path id="Trazado_11195" data-name="Trazado 11195" d="M1663.336-153.568l21,20.86" transform="translate(-592.59 538.802)" fill="none" stroke="#fefefd" stroke-linecap="round" stroke-linejoin="round" stroke-width="3"/>
          <path id="Trazado_11196" data-name="Trazado 11196" d="M1847.86-160.732,1718.49-91.879l-48.8,28.565" transform="translate(-545.297 518.117)" fill="none" stroke="#fefefd" stroke-linecap="round" stroke-linejoin="round" stroke-width="3"/>
          <path id="Trazado_11197" data-name="Trazado 11197" d="M1740.268-147.895l34.8,36.147" transform="translate(-470.502 524.223)" fill="none" stroke="#fefefd" stroke-linecap="round" stroke-width="3"/>
          <path id="Trazado_11198" data-name="Trazado 11198" d="M1740.641-145.192l13.072,15.454" transform="translate(-589.368 489.532)" fill="none" stroke="#fefefd" stroke-linecap="round" stroke-width="3"/>
          <path id="Trazado_11199" data-name="Trazado 11199" d="M1736.346-152.2l16.732,18.334" transform="translate(-572.327 488.014)" fill="none" stroke="#fefefd" stroke-linecap="round" stroke-width="3"/>
          <path id="Trazado_11200" data-name="Trazado 11200" d="M1828.837-136.591,1721.685-73.334" transform="translate(-489.197 530.254)" fill="none" stroke="#fefefd" stroke-linecap="round" stroke-width="3"/>
          <path id="Trazado_11201" data-name="Trazado 11201" d="M1746.762-114.285l63.372,58.964" transform="translate(-463.025 541.468)" fill="none" stroke="#fefefd" stroke-linecap="round" stroke-width="3"/>
          <path id="Trazado_11202" data-name="Trazado 11202" d="M1698.592-6.236l182.7-114.012" transform="translate(-513.3 538.47)" fill="none" stroke="#fefefd" stroke-linecap="round" stroke-width="3"/>
          <path id="Trazado_11203" data-name="Trazado 11203" d="M1759.905-57.533,2070.08,215.258" transform="translate(-449.306 569.999)" fill="none" stroke="#fefefd" stroke-linecap="round" stroke-width="3"/>
          <path id="Trazado_11204" data-name="Trazado 11204" d="M1787.988-82.313l159.66,144.134" transform="translate(-419.996 557.541)" fill="none" stroke="#fefefd" stroke-linecap="round" stroke-width="3"/>
          <path id="Trazado_11205" data-name="Trazado 11205" d="M1924.987-58.3s-8.884-29.43-16.189-25.788S1733.214,29.516,1733.214,29.516s-.25,1.259,12.25,11.629S1867.17,149.093,1867.17,149.093" transform="translate(-477.165 556.49)" fill="none" stroke="#fefefd" stroke-linecap="round" stroke-linejoin="round" stroke-width="3"/>
          <path id="Trazado_11206" data-name="Trazado 11206" d="M1744.086,37.114l170.126-102.5" transform="translate(-465.816 566.053)" fill="none" stroke="#fefefd" stroke-linecap="round" stroke-width="3"/>
          <path id="Trazado_11207" data-name="Trazado 11207" d="M1747.712,44.557,1914.12-56.892" transform="translate(-462.032 570.322)" fill="none" stroke="#fefefd" stroke-linecap="round" stroke-width="3"/>
          <path id="Trazado_11208" data-name="Trazado 11208" d="M1755.973,44.924,1891.1-40.793" transform="translate(-453.41 578.415)" fill="none" stroke="#fefefd" stroke-linecap="round" stroke-width="3"/>
          <path id="Trazado_11209" data-name="Trazado 11209" d="M1755.973,44.924,1891.1-40.793" transform="translate(-263.163 539.49)" fill="none" stroke="#fefefd" stroke-linecap="round" stroke-width="3"/>
          <path id="Trazado_11210" data-name="Trazado 11210" d="M1706.026,91.178,1923.781-40.793" transform="translate(-433.153 715.87)" fill="none" stroke="#fefefd" stroke-linecap="round" stroke-width="3"/>
          <path id="Trazado_11211" data-name="Trazado 11211" d="M1756.953,52.421l143.463-86.134" transform="translate(-452.388 581.975)" fill="none" stroke="#fefefd" stroke-linecap="round" stroke-width="3"/>
          <path id="Trazado_11212" data-name="Trazado 11212" d="M1756.953,52.421l143.463-86.134" transform="translate(-262.14 543.049)" fill="none" stroke="#fefefd" stroke-linecap="round" stroke-width="3"/>
          <path id="Trazado_11213" data-name="Trazado 11213" d="M1722.757,85.242l203.9-120.454" transform="translate(-421.825 719.105)" fill="none" stroke="#fefefd" stroke-linecap="round" stroke-width="3"/>
          <path id="Trazado_11214" data-name="Trazado 11214" d="M1765.047,59.72l141.438-86.212" transform="translate(-443.941 585.605)" fill="none" stroke="#fefefd" stroke-linecap="round" stroke-width="3"/>
          <path id="Trazado_11215" data-name="Trazado 11215" d="M1766.047,58.5l139.784-85" transform="translate(-253.039 546.679)" fill="none" stroke="#fefefd" stroke-linecap="round" stroke-width="3"/>
          <path id="Trazado_11216" data-name="Trazado 11216" d="M1737.49,86.948,1924.516-26.492" transform="translate(-409.033 723.06)" fill="none" stroke="#fefefd" stroke-linecap="round" stroke-width="3"/>
          <path id="Trazado_11217" data-name="Trazado 11217" d="M1766.047,58.039l137.379-82.381" transform="translate(-334.101 766.099)" fill="none" stroke="#fefefd" stroke-linecap="round" stroke-width="3"/>
          <path id="Trazado_11218" data-name="Trazado 11218" d="M1766.047,54.246,1869.114-6.818" transform="translate(-284.471 761.377)" fill="none" stroke="#fefefd" stroke-linecap="round" stroke-width="3"/>
          <path id="Trazado_11219" data-name="Trazado 11219" d="M1807.645,18.845l51.13-32.54" transform="translate(-255.598 783.001)" fill="none" stroke="#fefefd" stroke-linecap="round" stroke-width="3"/>
          <path id="Trazado_11220" data-name="Trazado 11220" d="M1721.685,127.506,1962.629-19.611" transform="translate(-489.197 589.064)" fill="none" stroke="#fefefd" stroke-linecap="round" stroke-width="3"/>
          <path id="Trazado_11221" data-name="Trazado 11221" d="M1733.214,143.7,1974.744-3.366" transform="translate(-477.165 597.231)" fill="none" stroke="#fefefd" stroke-linecap="round" stroke-width="3"/>
          <path id="Trazado_11222" data-name="Trazado 11222" d="M1857.535,5.669l-55.608-50.606" transform="translate(-405.448 576.332)" fill="none" stroke="#fefefd" stroke-linecap="round" stroke-width="3"/>
          <path id="Trazado_11223" data-name="Trazado 11223" d="M1803.152-23.137l8.634,6.988" transform="translate(-404.169 587.291)" fill="none" stroke="#fefefd" stroke-linecap="round" stroke-width="3"/>
          <path id="Trazado_11224" data-name="Trazado 11224" d="M1803.152-23.137l8.634,6.988" transform="translate(-213.921 548.366)" fill="none" stroke="#fefefd" stroke-linecap="round" stroke-width="3"/>
          <path id="Trazado_11225" data-name="Trazado 11225" d="M1810.82-153.568,1774.068-127.9" transform="translate(-434.524 521.719)" fill="none" stroke="#fefefd" stroke-linecap="round" stroke-width="3"/>
          <path id="Trazado_11226" data-name="Trazado 11226" d="M1777.77-15.219l36.355,29.7" transform="translate(-430.66 591.272)" fill="none" stroke="#fefefd" stroke-linecap="round" stroke-width="3"/>
          <path id="Trazado_11227" data-name="Trazado 11227" d="M1764.413-15.219l11.513,9.966" transform="translate(-444.6 591.272)" fill="none" stroke="#fefefd" stroke-linecap="round" stroke-width="3"/>
          <path id="Trazado_11228" data-name="Trazado 11228" d="M1756.953-6.714l45.538,39.257" transform="translate(-452.388 595.548)" fill="none" stroke="#fefefd" stroke-linecap="round" stroke-width="3"/>
          <path id="Trazado_11229" data-name="Trazado 11229" d="M1756.953-6.714l45.538,39.257" transform="translate(-262.14 556.623)" fill="none" stroke="#fefefd" stroke-linecap="round" stroke-width="3"/>
          <path id="Trazado_11230" data-name="Trazado 11230" d="M1756.953-6.714l62.122,56.038" transform="translate(-361.4 719.622)" fill="none" stroke="#fefefd" stroke-linecap="round" stroke-width="3"/>
          <path id="Trazado_11231" data-name="Trazado 11231" d="M1709.527,72.009,1826.756,1.1" transform="translate(-283.246 716.447)" fill="none" stroke="#fefefd" stroke-linecap="round" stroke-width="3"/>
          <path id="Trazado_11232" data-name="Trazado 11232" d="M1759.863-3.655l81.328,74.308" transform="translate(-397.545 733.665)" fill="none" stroke="#fefefd" stroke-linecap="round" stroke-width="3"/>
          <path id="Trazado_11233" data-name="Trazado 11233" d="M1799,39.94l34.13,29.788" transform="translate(-408.505 619.002)" fill="none" stroke="#fefefd" stroke-linecap="round" stroke-width="3"/>
          <path id="Trazado_11234" data-name="Trazado 11234" d="M1806.075,53.124l26.879-15.264,16.124,15.264" transform="translate(-401.118 617.956)" fill="none" stroke="#fefefd" stroke-linecap="round" stroke-linejoin="round" stroke-width="3"/>
          <path id="Trazado_11235" data-name="Trazado 11235" d="M1598.84,14.5s55.438-47.8,66.229-53.411" transform="translate(-617.413 579.362)" fill="none" stroke="#fefefd" stroke-linecap="round" stroke-width="3"/>
          <path id="Trazado_11236" data-name="Trazado 11236" d="M1615.043-23.137l19.02,13.3" transform="translate(-598.458 587.291)" fill="none" stroke="#fefefd" stroke-linecap="round" stroke-width="3"/>
          <path id="Trazado_11237" data-name="Trazado 11237" d="M1604.008-8.893l18.1,6.628" transform="translate(-612.018 594.452)" fill="none" stroke="#fefefd" stroke-linecap="round" stroke-width="3"/>
          <path id="Trazado_11238" data-name="Trazado 11238" d="M1617,29.972s109.218,139.3,128.787,154.272" transform="translate(-598.456 613.991)" fill="none" stroke="#fefefd" stroke-linecap="round" stroke-width="3"/>
          <path id="Trazado_11240" data-name="Trazado 11240" d="M1882.682-57.533s50.82,41,60.739,46.692" transform="translate(-321.162 569.999)" fill="none" stroke="#fefefd" stroke-linecap="round" stroke-width="3"/>
          <path id="Trazado_11241" data-name="Trazado 11241" d="M1882.682-57.533s136.865,111.008,146.782,116.7" transform="translate(-458.471 746.379)" fill="none" stroke="#fefefd" stroke-linecap="round" stroke-width="3"/>
          <path id="Trazado_11242" data-name="Trazado 11242" d="M2071-204.06l-95.509,57.142,12.477,10.023-54.731,37.049-32.763-18.406h-11.848l-17.152-5.922-16.719,5.922,25.433,28.978-42.836,24.547,17.4,14.01v17.072l69.911,53.254h38.146L1987.968,2.48l23.563,17.129L2203.948-89.273Z" transform="translate(-368.475 496.336)" fill="#fffffe"/>
          <path id="Trazado_11243" data-name="Trazado 11243" d="M91.75,0l74.508,81.416L157.6,94.375l42.961,52.462,23.219-23.349,8.806.536,12.384-7.213,12.792,8.746L240.645,163.5l33.35,35.057-12.073,18.113,1.051,23.032-48.685,68.683-28.353-1.727-19.754-24.249-16.459,22.043L0,148.846Z" transform="matrix(0.174, -0.985, 0.985, 0.174, 1477.714, 749.925)" fill="#fffffe"/>
          <path id="Trazado_11244" data-name="Trazado 11244" d="M1958.333-198.976s-49.117-48.059-101.3-98.886" transform="translate(-431.179 331.55)" fill="none" stroke="#fefefd" stroke-linecap="round" stroke-linejoin="round" stroke-width="6"/>
          <path id="Trazado_11245" data-name="Trazado 11245" d="M1698.592-197.271s86.727-47.719,135.756-78.6,87.865-55.476,91.328-56.19c9.358,4.137,59.183,46.769,61.5,50.709" transform="translate(-513.3 431.986)" fill="none" stroke="#fefefd" stroke-linecap="round" stroke-linejoin="round" stroke-width="3"/>
          <path id="Trazado_11246" data-name="Trazado 11246" d="M1698.592-211.41s52.217-24.439,101.246-55.317" transform="translate(-620.831 345.162)" fill="none" stroke="#fefefd" stroke-linecap="round" stroke-linejoin="round" stroke-width="3"/>
          <path id="Trazado_11247" data-name="Trazado 11247" d="M1698.592-211.41s52.217-24.439,101.246-55.317" transform="translate(-496.471 303.964)" fill="none" stroke="#fefefd" stroke-linecap="round" stroke-linejoin="round" stroke-width="3"/>
          <path id="Trazado_11248" data-name="Trazado 11248" d="M1698.592-211.41s52.217-24.439,101.246-55.317" transform="translate(-591.053 373.14)" fill="none" stroke="#fefefd" stroke-linecap="round" stroke-linejoin="round" stroke-width="3"/>
          <path id="Trazado_11249" data-name="Trazado 11249" d="M1698.592-211.291s92.294-49.056,141.323-79.934" transform="translate(-466.694 331.823)" fill="none" stroke="#fefefd" stroke-linecap="round" stroke-linejoin="round" stroke-width="3"/>
          <path id="Trazado_11250" data-name="Trazado 11250" d="M1698.592-211.41s1.73-.81,5.289-2.53c14.348-19.055,55.85-27.528,95.956-52.787" transform="translate(-562.93 393.819)" fill="none" stroke="#fefefd" stroke-linecap="round" stroke-linejoin="round" stroke-width="3"/>
          <path id="Trazado_11251" data-name="Trazado 11251" d="M1698.592-211.41s1.73-.81,5.289-2.53c14.348-19.055,55.85-27.528,95.956-52.787" transform="translate(-438.57 352.62)" fill="none" stroke="#fefefd" stroke-linecap="round" stroke-linejoin="round" stroke-width="3"/>
          <path id="Trazado_11252" data-name="Trazado 11252" d="M1698.592-216.818s1.883,5.962,50.912-24.917" transform="translate(-539.769 424.772)" fill="none" stroke="#fefefd" stroke-linecap="round" stroke-linejoin="round" stroke-width="3"/>
          <path id="Trazado_11253" data-name="Trazado 11253" d="M1839.09-349.306s-35.9,16.223-27.744,26.2" transform="translate(-396.874 423.315)" fill="none" stroke="#fefefd" stroke-linecap="round" stroke-width="3"/>
          <path id="Trazado_11254" data-name="Trazado 11254" d="M1862.592-316.906l-74.969,45.834" transform="translate(-420.377 439.604)" fill="none" stroke="#fefefd" stroke-linecap="round" stroke-width="3"/>
          <path id="Trazado_11255" data-name="Trazado 11255" d="M1873.3-316.906l-102.032,59.5" transform="translate(-732.168 358.104)" fill="none" stroke="#fefefd" stroke-linecap="round" stroke-width="3"/>
          <path id="Trazado_11256" data-name="Trazado 11256" d="M1873.3-316.906l-102.032,59.5" transform="translate(-607.809 316.906)" fill="none" stroke="#fefefd" stroke-linecap="round" stroke-width="3"/>
          <path id="Trazado_11257" data-name="Trazado 11257" d="M1790.828-288.511l26.51,25.4" transform="translate(-417.031 453.879)" fill="none" stroke="#fefefd" stroke-linecap="round" stroke-width="3"/>
          <path id="Trazado_11258" data-name="Trazado 11258" d="M1788.9-289.219l35.956,33.372" transform="translate(-727.655 379.524)" fill="none" stroke="#fefefd" stroke-linecap="round" stroke-width="3"/>
          <path id="Trazado_11259" data-name="Trazado 11259" d="M1796.831-292.9l26.378,25.289" transform="translate(-410.766 451.672)" fill="none" stroke="#fefefd" stroke-linecap="round" stroke-width="3"/>
          <path id="Trazado_11260" data-name="Trazado 11260" d="M1796.831-292.9l35.261,34.041" transform="translate(-711.853 370.172)" fill="none" stroke="#fefefd" stroke-linecap="round" stroke-width="3"/>
          <path id="Trazado_11261" data-name="Trazado 11261" d="M1796.831-292.9l35.261,34.041" transform="translate(-587.494 328.973)" fill="none" stroke="#fefefd" stroke-linecap="round" stroke-width="3"/>
          <path id="Trazado_11262" data-name="Trazado 11262" d="M1804.035-271.661l57.875-36.024" transform="translate(-403.248 444.239)" fill="none" stroke="#fefefd" stroke-linecap="round" stroke-width="3"/>
          <path id="Trazado_11263" data-name="Trazado 11263" d="M1804.035-272.129l55.7-33.393" transform="translate(-704.335 363.208)" fill="none" stroke="#fefefd" stroke-linecap="round" stroke-width="3"/>
          <path id="Trazado_11264" data-name="Trazado 11264" d="M1804.035-272.129l55.7-33.393" transform="translate(-579.975 322.009)" fill="none" stroke="#fefefd" stroke-linecap="round" stroke-width="3"/>
          <path id="Trazado_11265" data-name="Trazado 11265" d="M1742.245-169.093l102.938-61.165L1667.326-392.747" transform="translate(-528.298 433.248)" fill="none" stroke="#fefefd" stroke-linecap="round" stroke-linejoin="round" stroke-width="3"/>
          <path id="Trazado_11266" data-name="Trazado 11266" d="M1762.266-264.32l29.483,28.492" transform="translate(-446.842 466.041)" fill="none" stroke="#fefefd" stroke-linecap="round" stroke-width="3"/>
          <path id="Trazado_11267" data-name="Trazado 11267" d="M1635.909-235.83s62.281,57.349,69.113,70.579" transform="translate(-578.723 480.364)" fill="none" stroke="#fefefd" stroke-linecap="round" stroke-width="3"/>
          <path id="Trazado_11268" data-name="Trazado 11268" d="M1612.322-223.743l69.521,76.369" transform="translate(-603.342 486.44)" fill="none" stroke="#fefefd" stroke-linecap="round" stroke-width="3"/>
          <path id="Trazado_11269" data-name="Trazado 11269" d="M1634.522-181.238s67.646-33.139,74.45-33.631" transform="translate(-582.214 490.901)" fill="none" stroke="#fefefd" stroke-linecap="round" stroke-width="3"/>
          <path id="Trazado_11270" data-name="Trazado 11270" d="M1634.522-181.238s67.646-33.139,74.45-33.631" transform="translate(-582.214 740.102)" fill="none" stroke="#fefefd" stroke-linecap="round" stroke-width="3"/>
          <path id="Trazado_11271" data-name="Trazado 11271" d="M1652.249-209.155s-31.333,16.043-36.2,19.036-20.362-7.09-27.54-19.036" transform="translate(-628.197 493.774)" fill="none" stroke="#fefefd" stroke-linecap="round" stroke-linejoin="round" stroke-width="3"/>
          <path id="Trazado_11272" data-name="Trazado 11272" d="M1608.438-202.644,1659.478-143" transform="translate(-607.396 497.047)" fill="none" stroke="#fefefd" stroke-linecap="round" stroke-width="3"/>
          <path id="Trazado_11273" data-name="Trazado 11273" d="M1703.281-172.9l-94.311,47.078-59.247-57.171" transform="translate(-668.677 506.926)" fill="none" stroke="#fefefd" stroke-linecap="round" stroke-linejoin="round" stroke-width="3"/>
          <path id="Trazado_11274" data-name="Trazado 11274" d="M1578.786-145.026l18.3,19.711" transform="translate(-638.343 526.013)" fill="none" stroke="#fefefd" stroke-linecap="round" stroke-width="3"/>
          <path id="Trazado_11275" data-name="Trazado 11275" d="M1457.067,68.534,1693.782-44.023" transform="translate(-765.383 576.791)" fill="none" stroke="#fefefd" stroke-linecap="round" stroke-width="3"/>
          <path id="Trazado_11276" data-name="Trazado 11276" d="M1465.535,85.53,1703.189-26.6" transform="translate(-756.545 585.55)" fill="none" stroke="#fefefd" stroke-linecap="round" stroke-width="3"/>
          <path id="Trazado_11277" data-name="Trazado 11277" d="M1471.624,100.888s179.207-71.265,241.217-112.95" transform="translate(-750.19 592.859)" fill="none" stroke="#fefefd" stroke-linecap="round" stroke-width="3"/>
          <path id="Trazado_11278" data-name="Trazado 11278" d="M1476.147-34.356s126.09,155.562,162.235,175.5" transform="translate(-745.469 581.651)" fill="none" stroke="#fefefd" stroke-linecap="round" stroke-width="3"/>
          <path id="Trazado_11279" data-name="Trazado 11279" d="M1486.784-25.157s17.939,32.066,24.711,29.974,72.585-32.16,76.947-35.427c-5.135-8.854-25.859-35.652-25.859-35.652l52.271,65.32" transform="translate(-734.367 565.611)" fill="none" stroke="#fefefd" stroke-linecap="round" stroke-linejoin="round" stroke-width="3"/>
          <path id="Trazado_11280" data-name="Trazado 11280" d="M1515.839-34.356S1649.653,111.87,1682.67,131.557" transform="translate(-704.042 581.651)" fill="none" stroke="#fefefd" stroke-linecap="round" stroke-width="3"/>
          <path id="Trazado_11281" data-name="Trazado 11281" d="M1504.037,144S1704.881,24.241,1713.322,14.283" transform="translate(-716.36 606.103)" fill="none" stroke="#fefefd" stroke-linecap="round" stroke-width="3"/>
          <path id="Trazado_11282" data-name="Trazado 11282" d="M1567.643,6.907s29.137,38.468,33.44,40.235" transform="translate(-649.973 602.395)" fill="none" stroke="#fefefd" stroke-linecap="round" stroke-width="3"/>
          <path id="Trazado_11283" data-name="Trazado 11283" d="M1506.4,43.421s43.583,48.189,49.776,51.976" transform="translate(-713.891 620.752)" fill="none" stroke="#fefefd" stroke-linecap="round" stroke-width="3"/>
          <path id="Trazado_11284" data-name="Trazado 11284" d="M1484.33,88.561l65.576-31.541" transform="translate(-736.929 627.589)" fill="none" stroke="#fefefd" stroke-linecap="round" stroke-width="3"/>
          <path id="Trazado_11285" data-name="Trazado 11285" d="M1492.509,102.381l59.5-36.639" transform="translate(-728.392 631.973)" fill="none" stroke="#fefefd" stroke-linecap="round" stroke-width="3"/>
          <path id="Trazado_11286" data-name="Trazado 11286" d="M1530.758,61.634s56.87-26.362,62.8-30.509" transform="translate(-688.471 614.57)" fill="none" stroke="#fefefd" stroke-linecap="round" stroke-width="3"/>
          <path id="Trazado_11287" data-name="Trazado 11287" d="M1604.008-6.572s9.939,21.077,31.213,31.8c6.97-1.524,10.661-7.2,15.113,0s19.622,20.6,19.622,20.6l22.845-14.8-22.845-20.553,38.676,35.351" transform="translate(-612.018 595.619)" fill="none" stroke="#fefefd" stroke-linecap="round" stroke-linejoin="round" stroke-width="3"/>
          <path id="Trazado_11288" data-name="Trazado 11288" d="M1624.35,43.11l15.045-8.338,13.275-7.357" transform="translate(-590.787 612.706)" fill="none" stroke="#fefefd" stroke-linecap="round" stroke-linejoin="round" stroke-width="3"/>
          <path id="Trazado_11289" data-name="Trazado 11289" d="M2054.3-200.276l76.923-31.318" transform="translate(-511.349 348.324)" fill="none" stroke="#fefefd" stroke-width="3"/>
          <path id="Trazado_11290" data-name="Trazado 11290" d="M1816.377-159.894,1632.151-293.6" transform="translate(-782.609 332.472)" fill="none" stroke="#fefefd" stroke-width="3"/>
          <path id="Trazado_11291" data-name="Trazado 11291" d="M1724.734-113.8l-29.539-32.4,36.712-18.911L1614.471-270.612" transform="translate(-794.177 337.447)" fill="none" stroke="#fefefd" stroke-width="3"/>
          <path id="Trazado_11292" data-name="Trazado 11292" d="M1738.471-149.111l14.342,16.777" transform="translate(-557.702 476.52)" fill="none" stroke="#fefefd" stroke-linecap="round" stroke-width="3"/>
          <path id="Trazado_11293" data-name="Trazado 11293" d="M1588.8,601.079l166.018,157.805" transform="translate(-489.062 41.74)" fill="none" stroke="#fefefd" stroke-linecap="round" stroke-width="3"/>
          <path id="Trazado_11294" data-name="Trazado 11294" d="M1566.489,670.08,1760.448,552.3" transform="translate(-503.663 31.184)" fill="none" stroke="#fefefd" stroke-linecap="round" stroke-width="3"/>
          <path id="Trazado_11295" data-name="Trazado 11295" d="M1746.576,569.522,1617.225,654.31" transform="translate(-470.465 34.911)" fill="none" stroke="#fefefd" stroke-linecap="round" stroke-width="3"/>
          <path id="Trazado_11296" data-name="Trazado 11296" d="M1636.129,678.651l128.045-85.49" transform="translate(-458.095 40.026)" fill="none" stroke="#fefefd" stroke-linecap="round" stroke-width="3"/>
          <path id="Trazado_11297" data-name="Trazado 11297" d="M1617.225,608.079l22.928,23.77" transform="translate(-470.465 43.255)" fill="none" stroke="#fefefd" stroke-width="3"/>
          <path id="Trazado_11298" data-name="Trazado 11298" d="M1674.829,588.909l28.491,28.586" transform="translate(-432.773 39.106)" fill="none" stroke="#fefefd" stroke-width="3"/>
          <path id="Trazado_11299" data-name="Trazado 11299" d="M1677.851,654.914l26.625,22.538" transform="translate(-430.796 53.391)" fill="none" stroke="#fefefd" stroke-width="3"/>
          <path id="Trazado_11300" data-name="Trazado 11300" d="M1498.568,675.539l19.268,27.877" transform="translate(-548.105 57.854)" fill="none" stroke="#fefefd" stroke-linecap="round" stroke-width="3"/>
          <path id="Trazado_11301" data-name="Trazado 11301" d="M1472.826,747.632l157.535-98.316" transform="translate(-564.948 52.179)" fill="none" stroke="#fefefd" stroke-linecap="round" stroke-width="3"/>
          <path id="Trazado_11302" data-name="Trazado 11302" d="M1542.633,670.844l23.149,32.24" transform="translate(-519.272 56.838)" fill="none" stroke="#fefefd" stroke-linecap="round" stroke-width="3"/>
          <path id="Trazado_11303" data-name="Trazado 11303" d="M1626.049,678.2l-107.072,63.514" transform="translate(-534.751 58.43)" fill="none" stroke="#fefefd" stroke-linecap="round" stroke-width="3"/>
          <path id="Trazado_11304" data-name="Trazado 11304" d="M1616.641,705.054l-45.143,29.2" transform="translate(-500.385 64.242)" fill="none" stroke="#fefefd" stroke-linecap="round" stroke-width="3"/>
          <path id="Trazado_11305" data-name="Trazado 11305" d="M1765.675-299.045,1532.208-108.857" transform="translate(-848.004 331.294)" fill="none" stroke="#fefefd" stroke-width="3"/>
          <path id="Trazado_11306" data-name="Trazado 11306" d="M1719.777-270.612l-37.861,30.7" transform="translate(-750.046 337.447)" fill="none" stroke="#fefefd" stroke-width="3"/>
          <path id="Trazado_11307" data-name="Trazado 11307" d="M1734.272-209.194,1553.219-85.665" transform="translate(-834.255 350.739)" fill="none" stroke="#fefefd" stroke-width="3"/>
          <path id="Trazado_11308" data-name="Trazado 11308" d="M1580.513-238.641l116.857,141.3" transform="translate(-816.397 344.366)" fill="none" stroke="#fefefd" stroke-width="3"/>
          <path id="Trazado_11309" data-name="Trazado 11309" d="M1678.641-137.618l-98.212,39.96" transform="translate(-816.451 366.229)" fill="none" stroke="#fefefd" stroke-width="3"/>
          <path id="Trazado_11239" data-name="Trazado 11239" d="M1733.149-149.687,2007.8-313.845,2339.178-20.867,1719.519,371.027" transform="translate(-488.25 441.142)" fill="none" stroke="rgba(220,239,245,0.5)" stroke-linecap="round" stroke-linejoin="round" stroke-width="6"/>
          <path id="Trazado_11310" data-name="Trazado 11310" d="M2040.864-355.426c68.148,40.217,129.134,76.649,134.289,81.226,12.1,10.745,184.335,175.206,184.335,175.206S1990.954,87.923,1966.45,96.774,1624.974,257.831,1598.3,271.526s-195.209,101.881-207.066,102.182S1252.312,248.089,1232,235.581s-91.044-55.413-109.512-82.9" transform="translate(-1114.589 392.985)" fill="none" stroke="rgba(220,239,245,0.5)" stroke-linecap="round" stroke-linejoin="round" stroke-width="6"/>
          <path id="Trazado_11311" data-name="Trazado 11311" d="M1884.016-46.267S1741.1-186.412,1725.676-206.036" transform="translate(-485.032 495.342)" fill="none" stroke="rgba(220,239,245,0.5)" stroke-linecap="round" stroke-width="6"/>
        </g>
      </g>
    </g>
  </g>
</svg>
