<svg xmlns="http://www.w3.org/2000/svg" width="17.994" height="13.992" viewBox="0 0 17.994 13.992">
  <path id="solid_home" data-name="solid home" d="M8.743,35.68,2.984,40.423v5.119a.5.5,0,0,0,.5.5l3.5-.009a.5.5,0,0,0,.5-.5v-2.99a.5.5,0,0,1,.5-.5h2a.5.5,0,0,1,.5.5v2.987a.5.5,0,0,0,.5.5l3.5.01a.5.5,0,0,0,.5-.5V40.42L9.221,35.68a.381.381,0,0,0-.478,0Zm9.1,3.224-2.611-2.153V32.425a.375.375,0,0,0-.375-.375H13.1a.375.375,0,0,0-.375.375v2.268l-2.8-2.3a1.5,1.5,0,0,0-1.905,0L.121,38.9a.375.375,0,0,0-.05.528l.8.968a.375.375,0,0,0,.528.051L8.743,34.4a.381.381,0,0,1,.478,0l7.348,6.052a.375.375,0,0,0,.528-.05l.8-.968a.375.375,0,0,0-.053-.529Z" transform="translate(0.015 -32.05)" fill="#615821"/>
</svg>
