<svg xmlns="http://www.w3.org/2000/svg" width="16.328" height="16.328" viewBox="0 0 16.328 16.328">
  <g id="Icon_feather-eye-off" data-name="Icon feather-eye-off" transform="translate(-0.086 -0.086)">
    <path id="Trazado_2479" data-name="Trazado 2479" d="M11.895,14.554A6.179,6.179,0,0,1,8.25,15.818c-4.3,0-6.75-4.909-6.75-4.909A11.322,11.322,0,0,1,4.605,7.264M6.961,6.147A5.6,5.6,0,0,1,8.25,6c4.3,0,6.75,4.909,6.75,4.909a11.352,11.352,0,0,1-1.325,1.958M9.551,12.21a1.841,1.841,0,1,1-2.6-2.6" transform="translate(0 -2.659)" fill="none" stroke="#615821" stroke-linecap="round" stroke-linejoin="round" stroke-width="2"/>
    <path id="Trazado_2480" data-name="Trazado 2480" d="M1.5,1.5,15,15" fill="none" stroke="#615821" stroke-linecap="round" stroke-linejoin="round" stroke-width="2"/>
  </g>
</svg>
