<svg id="Grupo_30" data-name="Grupo 30" xmlns="http://www.w3.org/2000/svg" width="15.456" height="17.664" viewBox="0 0 15.456 17.664">
  <g id="Grupo_29" data-name="Grupo 29">
    <g id="Grupo_28" data-name="Grupo 28">
      <circle id="Elipse_1" data-name="Elipse 1" cx="1.035" cy="1.035" r="1.035" transform="translate(10.433 10.77)" fill="#615821"/>
      <path id="Trazado_2063" data-name="Trazado 2063" d="M260.266,259.594a.69.69,0,0,0,.69-.69v-5.658a2.763,2.763,0,0,0-2.76-2.76h-.829v-2.434a4.141,4.141,0,0,0-8.28,0v2.434h-.827a2.763,2.763,0,0,0-2.76,2.76V258.9a2.763,2.763,0,0,0,2.76,2.76H258.2a2.763,2.763,0,0,0,2.76-2.76.69.69,0,0,0-1.38,0,1.381,1.381,0,0,1-1.38,1.38H248.26a1.381,1.381,0,0,1-1.38-1.38v-5.658a1.381,1.381,0,0,1,1.38-1.38H258.2a1.381,1.381,0,0,1,1.38,1.38V258.9A.69.69,0,0,0,260.266,259.594Zm-4.279-9.108h-5.52v-2.434a2.761,2.761,0,0,1,5.52,0Z" transform="translate(-245.5 -244)" fill="#615821"/>
      <circle id="Elipse_2" data-name="Elipse 2" cx="1.035" cy="1.035" r="1.035" transform="translate(5.479 10.77)" fill="#615821"/>
      <circle id="Elipse_3" data-name="Elipse 3" cx="1.035" cy="1.035" r="1.035" transform="translate(3.018 10.77)" fill="#615821"/>
      <circle id="Elipse_4" data-name="Elipse 4" cx="1.035" cy="1.035" r="1.035" transform="translate(7.94 10.77)" fill="#615821"/>
    </g>
  </g>
</svg>
