<svg xmlns="http://www.w3.org/2000/svg" width="15.498" height="15.748" viewBox="0 0 15.498 15.748">
  <path id="solid_power-off" data-name="solid power-off" d="M20.249,1.69a7.748,7.748,0,1,1-9.005,0,.752.752,0,0,1,1.094.241l.494.878a.75.75,0,0,1-.206.969,5.249,5.249,0,1,0,6.246,0,.745.745,0,0,1-.2-.966l.494-.878a.749.749,0,0,1,1.087-.244ZM17,8.249V.75a.748.748,0,0,0-.75-.75h-1a.748.748,0,0,0-.75.75v7.5a.748.748,0,0,0,.75.75h1A.748.748,0,0,0,17,8.249Z" transform="translate(-8)" fill="#615821"/>
</svg>
