<svg xmlns="http://www.w3.org/2000/svg" width="11.999" height="15.999" viewBox="0 0 11.999 15.999">
  <path id="solid_file-pdf" data-name="solid file-pdf" d="M5.684,8a3.015,3.015,0,0,1-.062-1.465C5.884,6.537,5.859,7.69,5.684,8ZM5.631,9.477a14.418,14.418,0,0,1-.887,1.959,11.506,11.506,0,0,1,1.965-.684A4.048,4.048,0,0,1,5.631,9.477Zm-2.94,3.9c0,.025.412-.169,1.091-1.256A4.319,4.319,0,0,0,2.69,13.377ZM7.749,5H12V15.249a.748.748,0,0,1-.75.75H.75a.748.748,0,0,1-.75-.75V.75A.748.748,0,0,1,.75,0H7V4.25A.752.752,0,0,0,7.749,5ZM7.5,10.368A3.136,3.136,0,0,1,6.165,8.687a4.491,4.491,0,0,0,.194-2.006.783.783,0,0,0-1.494-.212,5.2,5.2,0,0,0,.253,2.406,29.342,29.342,0,0,1-1.275,2.681s0,0-.006,0c-.847.434-2.3,1.39-1.7,2.125A.971.971,0,0,0,2.806,14c.559,0,1.116-.562,1.909-1.931a17.811,17.811,0,0,1,2.469-.725,4.735,4.735,0,0,0,2,.609A.809.809,0,0,0,9.8,10.593C9.365,10.168,8.1,10.29,7.5,10.368ZM11.78,3.281,8.718.219A.749.749,0,0,0,8.187,0H8V4h4V3.809A.748.748,0,0,0,11.78,3.281ZM9.465,11.258c.128-.084-.078-.372-1.337-.281C9.287,11.471,9.465,11.258,9.465,11.258Z" fill="#615821"/>
</svg>
