<svg xmlns="http://www.w3.org/2000/svg" width="35.66" height="9.766" viewBox="0 0 35.66 9.766">
  <path id="Icon_ionic-ios-arrow-round-forward" data-name="Icon ionic-ios-arrow-round-forward" d="M9.174,11.439a.665.665,0,0,0-.005.936l3.092,3.1H-20.525a.659.659,0,0,0-.656.661.659.659,0,0,0,.656.661H12.256l-3.092,3.1a.669.669,0,0,0,.005.936.658.658,0,0,0,.931-.005L14.291,16.6h0a.743.743,0,0,0,.137-.209.631.631,0,0,0,.051-.254.663.663,0,0,0-.188-.463L10.1,11.454A.648.648,0,0,0,9.174,11.439Z" transform="translate(21.181 -11.252)" fill="#615821"/>
</svg>
