<svg xmlns="http://www.w3.org/2000/svg" width="18.064" height="13.843" viewBox="0 0 18.064 13.843">
  <g id="Grupo_27" data-name="Grupo 27" transform="translate(0.2 0.2)">
    <g id="Grupo_26" data-name="Grupo 26" transform="translate(0 0)">
      <path id="Trazado_2061" data-name="Trazado 2061" d="M15.508,57.75H2.16A2.162,2.162,0,0,0,0,59.91v9.123a2.162,2.162,0,0,0,2.16,2.16H15.5a2.162,2.162,0,0,0,2.16-2.16V59.914A2.16,2.16,0,0,0,15.508,57.75Zm1.173,11.283a1.175,1.175,0,0,1-1.173,1.173H2.16A1.175,1.175,0,0,1,.987,69.033V59.914A1.175,1.175,0,0,1,2.16,58.74H15.5a1.175,1.175,0,0,1,1.173,1.173v9.119Z" transform="translate(0 -57.75)" fill="#615821" stroke="#615821" stroke-width="0.4"/>
      <path id="Trazado_2062" data-name="Trazado 2062" d="M63.49,112.728l3.672-3.128a.386.386,0,0,0,.031-.564.437.437,0,0,0-.593-.03l-5.064,4.317-.988-.838s-.006-.006-.006-.009a.614.614,0,0,0-.068-.056L56.453,109a.434.434,0,0,0-.593.032.384.384,0,0,0,.034.564l3.716,3.154-3.7,3.29a.386.386,0,0,0-.019.564.44.44,0,0,0,.308.127.433.433,0,0,0,.286-.106l3.756-3.337,1.019.865a.435.435,0,0,0,.559,0l1.047-.891,3.734,3.37a.436.436,0,0,0,.593-.015.386.386,0,0,0-.016-.564Z" transform="translate(-52.694 -106.096)" fill="#615821" stroke="#615821" stroke-width="0.4"/>
    </g>
  </g>
</svg>
