<svg id="Grupo_154" data-name="Grupo 154" xmlns="http://www.w3.org/2000/svg" width="11.612" height="11.612" viewBox="0 0 11.612 11.612">
  <path id="Trazado_2140" data-name="Trazado 2140" d="M2.573,142.149l-.4,1.509-1.477.031a5.816,5.816,0,0,1-.043-5.422h0l1.315.241.576,1.307a3.465,3.465,0,0,0,.033,2.333Z" transform="translate(0 -135.132)" fill="#615821"/>
  <path id="Trazado_2141" data-name="Trazado 2141" d="M267.2,208.176a5.8,5.8,0,0,1-2.07,5.612h0l-1.657-.085-.234-1.464a3.46,3.46,0,0,0,1.489-1.767h-3.1v-2.3H267.2Z" transform="translate(-255.695 -203.455)" fill="#615821"/>
  <path id="Trazado_2142" data-name="Trazado 2142" d="M39.257,312.725h0a5.808,5.808,0,0,1-8.749-1.776l1.881-1.54a3.453,3.453,0,0,0,4.976,1.768Z" transform="translate(-29.817 -302.392)" fill="#615821"/>
  <path id="Trazado_2143" data-name="Trazado 2143" d="M37.487,1.337l-1.881,1.54a3.452,3.452,0,0,0-5.09,1.808L28.624,3.136h0a5.807,5.807,0,0,1,8.863-1.8Z" transform="translate(-27.975)" fill="#615821"/>
</svg>
