<svg xmlns="http://www.w3.org/2000/svg" width="15.998" height="11.998" viewBox="0 0 15.998 11.998">
  <path id="solid_chart-bar" data-name="solid chart-bar" d="M10.4,72h1.2a.43.43,0,0,0,.4-.4V67.4a.43.43,0,0,0-.4-.4H10.4a.43.43,0,0,0-.4.4v4.2A.43.43,0,0,0,10.4,72Zm3,0h1.2a.43.43,0,0,0,.4-.4V64.4a.43.43,0,0,0-.4-.4H13.4a.43.43,0,0,0-.4.4v7.2A.43.43,0,0,0,13.4,72Zm-9,0H5.6a.43.43,0,0,0,.4-.4V69.4a.43.43,0,0,0-.4-.4H4.4a.43.43,0,0,0-.4.4v2.2A.43.43,0,0,0,4.4,72Zm3,0H8.6a.43.43,0,0,0,.4-.4V65.4a.43.43,0,0,0-.4-.4H7.4a.43.43,0,0,0-.4.4v6.2A.43.43,0,0,0,7.4,72Zm8.1,2H2V64.5a.5.5,0,0,0-.5-.5H.5a.5.5,0,0,0-.5.5V75a1,1,0,0,0,1,1H15.5a.5.5,0,0,0,.5-.5v-1A.5.5,0,0,0,15.5,74Z" transform="translate(0 -64)" fill="#615821"/>
</svg>
