<svg xmlns="http://www.w3.org/2000/svg" width="33.544" height="34.22" viewBox="0 0 33.544 34.22">
  <g id="Grupo_1337" data-name="Grupo 1337" transform="translate(-277.339 33)">
    <g id="Grupo_863" data-name="Grupo 863" transform="translate(277.339 -33)">
      <g id="Grupo_858" data-name="Grupo 858" transform="translate(3.752 24.975)">
        <g id="Grupo_857" data-name="Grupo 857">
          <path id="Trazado_10375" data-name="Trazado 10375" d="M603.669,305.077l-13.433-7.112a1.077,1.077,0,0,0-1.108.064l-10.271,7.112a1.068,1.068,0,0,0,.606,1.945h23.7a1.067,1.067,0,0,0,.5-2.009Z" transform="translate(-578.398 -297.841)" fill="#fff"/>
        </g>
      </g>
      <g id="Grupo_860" data-name="Grupo 860" transform="translate(17.977 15.125)">
        <g id="Grupo_859" data-name="Grupo 859">
          <path id="Trazado_10376" data-name="Trazado 10376" d="M709.473,232.9l-3.159-14.223a1.069,1.069,0,0,0-1.65-.647l-10.274,7.112a1.066,1.066,0,0,0,.109,1.819l13.431,7.112a1.071,1.071,0,0,0,.5.126,1.053,1.053,0,0,0,.647-.22A1.069,1.069,0,0,0,709.473,232.9Z" transform="translate(-693.931 -217.84)" fill="#fff"/>
        </g>
      </g>
      <g id="Grupo_862" data-name="Grupo 862" transform="translate(0.682 12.874)">
        <g id="Grupo_861" data-name="Grupo 861">
          <path id="Trazado_10377" data-name="Trazado 10377" d="M578.865,200.309a1.07,1.07,0,0,0-1.02-.749H568.1a44.553,44.553,0,0,1-5.471,7.475,3.2,3.2,0,0,1-4.764,0c-.416-.463-1.061-1.2-1.8-2.122l-2.583,11.625a1.071,1.071,0,0,0,.446,1.116,1.068,1.068,0,0,0,1.2-.008L578.451,201.5A1.063,1.063,0,0,0,578.865,200.309Z" transform="translate(-553.46 -199.56)" fill="#fff"/>
        </g>
      </g>
      <path id="Trazado_10378" data-name="Trazado 10378" d="M711.492,97.965h-.247V95.988a.988.988,0,0,0-1.977,0v1.977h-.988V95.988a.988.988,0,0,0-1.977,0v1.977h-.247a.744.744,0,0,0-.741.741v1.977a2.721,2.721,0,0,0,2.471,2.706v.507a.988.988,0,0,0,.741.954h.5a.988.988,0,0,0,.738-.953v-.507a2.721,2.721,0,0,0,2.471-2.706V98.706A.744.744,0,0,0,711.492,97.965Z" transform="translate(-685.936 -95)" fill="#fff"/>
      <path id="Trazado_10379" data-name="Trazado 10379" d="M741.437,99.507a.494.494,0,1,1,.988,0v2.718h-.988Z" transform="translate(-717.61 -98.519)"/>
      <path id="Trazado_10380" data-name="Trazado 10380" d="M717.356,99.507a.494.494,0,1,1,.988,0v2.718h-.988Z" transform="translate(-696.495 -98.519)"/>
      <path id="Trazado_10383" data-name="Trazado 10383" d="M674.689,154.815h0v1.893a.291.291,0,0,1-.091.216.3.3,0,0,1-.217.1l-3.933.012-2.086-.012a.3.3,0,0,1-.217-.1.291.291,0,0,1-.091-.216v-3a.944.944,0,0,0-.941-.941h-.3v.627h.3a.314.314,0,0,1,.314.314v3a.939.939,0,0,0,.935.939l2.086,0,3.933,0a.939.939,0,0,0,.935-.939v-1.894Z" transform="translate(-652.175 -145.658)" fill="#fff"/>
      <path id="Trazado_10384" data-name="Trazado 10384" d="M742.425,99.507a.494.494,0,1,0-.988,0v2.718h.988Z" transform="translate(-717.61 -98.519)"/>
      <path id="Trazado_10385" data-name="Trazado 10385" d="M718.344,99.507a.494.494,0,1,0-.988,0v2.718h.988Z" transform="translate(-696.495 -98.519)"/>
      <path id="Trazado_10390" data-name="Trazado 10390" d="M741.437,99.508a.494.494,0,0,1,.988,0v2.718h-.988Z" transform="translate(-717.61 -98.52)" fill="#212a61"/>
      <path id="Trazado_10391" data-name="Trazado 10391" d="M717.356,99.508a.494.494,0,0,1,.988,0v2.718h-.988Z" transform="translate(-696.495 -98.52)" fill="#212a61"/>
      <path id="Trazado_10392" data-name="Trazado 10392" d="M555.395,95.542a7.479,7.479,0,0,0-7.471,7.471c0,3.834,5.994,10.624,6.677,11.386a1.067,1.067,0,0,0,1.588,0c.683-.762,6.677-7.552,6.677-11.386A7.479,7.479,0,0,0,555.395,95.542Z" transform="translate(-547.924 -95.475)" fill="#fff"/>
      <path id="Trazado_10393" data-name="Trazado 10393" d="M585.9,120.11a.534.534,0,0,0-.454-.251h-2.668v-3.735a.534.534,0,0,0-.411-.518.525.525,0,0,0-.6.278l-3.2,6.4a.534.534,0,0,0,.475.774h2.668V126.8a.533.533,0,0,0,.411.518.485.485,0,0,0,.123.016.534.534,0,0,0,.475-.294l3.2-6.4A.538.538,0,0,0,585.9,120.11Z" transform="translate(-574.745 -113.055)" fill="#212a61"/>
    </g>
  </g>
</svg>
